<svg xmlns="http://www.w3.org/2000/svg" xmlns:xlink="http://www.w3.org/1999/xlink" viewBox="0 0 1282.51 463.92"><defs><style>.cls-1,.cls-13,.cls-14,.cls-15,.cls-17,.cls-18,.cls-2,.cls-3,.cls-4,.cls-5{fill:none;}.cls-1,.cls-14,.cls-18,.cls-2,.cls-4,.cls-5,.cls-6{stroke:#555;}.cls-1,.cls-14,.cls-17,.cls-18,.cls-4,.cls-6{stroke-miterlimit:10;}.cls-1,.cls-11,.cls-2{stroke-width:0.25px;}.cls-11,.cls-13,.cls-15,.cls-16,.cls-2,.cls-3,.cls-5{stroke-linejoin:round;}.cls-13,.cls-15,.cls-16,.cls-17,.cls-3{stroke:#666;}.cls-3,.cls-4,.cls-5,.cls-6{stroke-width:0.5px;}.cls-11,.cls-16,.cls-6{fill:#fff;}.cls-7{clip-path:url(#clip-path);}.cls-8{clip-path:url(#clip-path-2);}.cls-9{clip-path:url(#clip-path-3);}.cls-10{clip-path:url(#clip-path-4);}.cls-11{stroke:#555756;}.cls-12{clip-path:url(#clip-path-5);}.cls-13{stroke-width:0.8px;}.cls-15,.cls-16,.cls-17,.cls-18{stroke-width:2px;}</style><clipPath id="clip-path"><polygon class="cls-1" points="675.39 255 682.31 246.06 702.48 246.06 702.48 255 675.39 255"/></clipPath><clipPath id="clip-path-2"><polygon class="cls-2" points="168.18 352.87 168.18 283.56 175.19 288.01 175.19 353.95 168.18 352.87"/></clipPath><clipPath id="clip-path-3"><rect class="cls-1" x="113.21" y="255" width="51.46" height="11.06"/></clipPath><clipPath id="clip-path-4"><polyline class="cls-1" points="560.94 372.63 560.94 221.14 568.96 211.56 568.96 192.18 596.36 192.18 596.36 373.34"/></clipPath><clipPath id="clip-path-5"><polygon class="cls-1" points="866.33 255 816.88 255 828.24 245.84 828.24 209.11 839.6 199.53 866.33 199.53 866.33 255"/></clipPath></defs><g id="Layer_10" data-name="Layer 10"><g id="Sun-2" data-name="Sun"><path class="cls-3" d="M494.93,280.85a142.57,142.57,0,0,1,284-18.11"/><line class="cls-3" x1="794.32" y1="280.85" x2="816.88" y2="280.85"/><line class="cls-3" x1="784.68" y1="227.28" x2="905.44" y2="183.33"/><line class="cls-3" x1="757.63" y1="180.04" x2="855.92" y2="97.57"/><line class="cls-3" x1="715.92" y1="145.01" x2="780.06" y2="33.91"/><line class="cls-3" x1="664.73" y1="126.38" x2="687.01" y2="0.04"/><line class="cls-3" x1="610.26" y1="126.38" x2="587.98" y2="0.04"/><line class="cls-3" x1="559.07" y1="145.01" x2="494.93" y2="33.91"/><line class="cls-3" x1="517.36" y1="180.04" x2="419.07" y2="97.57"/><line class="cls-3" x1="490.09" y1="227.2" x2="369.55" y2="183.33"/><line class="cls-3" x1="480.67" y1="280.85" x2="471.39" y2="280.85"/><line class="cls-3" x1="438.65" y1="280.85" x2="431.3" y2="280.85"/></g><polyline class="cls-4" points="816.88 384.04 816.88 255 828.24 245.84 828.24 209.11 839.6 199.53 860.32 199.53 866.33 199.53 866.33 255 873.68 255 873.68 387.55"/><polyline class="cls-4" points="911.1 207.55 911.1 95.96 860.32 95.96 860.32 199.53"/><polyline class="cls-4" points="920.5 390.65 949.86 392.76 949.86 207.55 911.1 207.55 884.37 207.55 884.37 388.24"/><path class="cls-5" d="M784.19,270.24h9.3v7.48H758.74v-7.48h9.35a8,8,0,1,1,16,0Z"/><circle class="cls-5" cx="776.12" cy="269.86" r="3.91"/><polyline class="cls-4" points="800.84 383.09 800.84 363.92 793.49 363.92"/><polyline class="cls-4" points="560.94 372.63 560.94 221.14 568.96 211.56 568.96 192.18 596.36 192.18 596.36 373.34"/><line class="cls-4" x1="611.06" y1="291.42" x2="596.36" y2="291.42"/><polyline class="cls-4" points="646.25 375.14 646.25 352.34 646.25 300 639.13 300 639.13 285.74 611.06 285.74 611.06 291.42 611.06 373.8"/><path class="cls-4" d="M816.88,384l-16-1-7.35-.43c-11.43-.66-23.06-1.32-34.75-2v-103h34.75V382.66"/><polyline class="cls-4" points="660.73 375.76 660.73 352.34 660.73 301.11 671.2 301.11"/><polyline class="cls-4" points="793.49 382.66 793.49 363.92 793.49 277.72 758.74 277.72"/><polyline class="cls-4" points="758.74 380.69 758.74 277.72 758.74 262.35 738.7 262.35 723.33 273.71 723.33 378.79"/><line class="cls-4" x1="596.36" y1="373.34" x2="596.36" y2="291.42"/><polyline class="cls-4" points="671.2 376.23 671.2 301.11 671.2 260.57 684.57 243.31 706.62 243.31 706.62 255 716.64 255 716.64 378.45"/><line class="cls-4" x1="646.25" y1="352.34" x2="660.73" y2="352.34"/><polyline class="cls-4" points="546.24 297.1 546.24 291.42 532.21 291.42"/><polyline class="cls-4" points="546.24 372.63 546.24 297.1 557.6 297.1 557.6 372.61"/><polyline class="cls-4" points="514.83 373.05 514.83 288.41 532.21 288.41 532.21 291.42 532.21 372.99"/><polyline class="cls-4" points="438.65 339.19 438.65 238.96 471.39 238.96 471.39 288.41"/><polyline class="cls-4" points="471.39 385.57 471.39 361.1 471.39 288.41 488.77 288.41"/><polyline class="cls-4" points="416.6 255 431.3 255 431.3 349.17"/><line class="cls-6" x1="416.6" y1="358.67" x2="416.6" y2="255"/><polyline class="cls-4" points="348.44 386.39 348.44 356.94 348.44 211.56 395.21 211.56 395.21 245.64 395.21 358.06 395.21 390.33"/><polyline class="cls-4" points="488.77 382.77 488.77 362.48 488.77 288.41 488.77 280.39 514.83 280.39 514.83 288.41"/><path class="cls-4" d="M416.6,255v-9.36h0V389.27c-7,.36-14.12.71-21.39,1.06"/><line class="cls-4" x1="281.61" y1="305.12" x2="296.98" y2="305.12"/><polyline class="cls-4" points="281.61 379.16 281.61 305.12 281.61 262.35 247.53 262.35 247.53 311.13"/><polyline class="cls-4" points="210.78 309.68 210.78 302.44 210.78 280.39 188.72 280.39 188.72 302.44 183.38 302.44 183.38 351.15"/><polyline class="cls-4" points="202.76 378.16 202.76 322.83 214.79 303.11 221.47 303.11 221.47 383.84"/><polyline class="cls-5" points="178.7 353.16 178.7 282.62 164.67 273.71 164.67 252.33 157.32 235.62 133.93 235.62 113.21 252.33 113.21 341.58"/><polyline class="cls-4" points="339.75 378.48 339.75 356.72 339.75 204.88 296.98 204.88 296.98 305.12 296.98 354.96 296.98 375.54"/><polyline class="cls-4" points="247.53 372.19 247.53 311.13 236.84 311.13"/><polyline class="cls-4" points="236.84 372.76 236.84 311.13 236.84 288.41 221.47 288.41 221.47 303.11"/><line class="cls-4" x1="202.76" y1="322.83" x2="210.78" y2="309.68"/><polyline class="cls-4" points="6.29 391.96 6.29 358.71 6.29 308.46 22.33 308.46 22.33 358.71 22.33 391.96"/><polyline class="cls-4" points="67.77 311.13 67.77 303.11 80.47 303.11 80.47 358.71 80.47 381.08"/><polyline class="cls-4" points="67.77 381.27 67.77 358.71 67.77 311.13 45.05 311.13"/><line class="cls-4" x1="76.56" y1="358.71" x2="76.56" y2="380.89"/><line class="cls-4" x1="51.13" y1="358.71" x2="51.13" y2="384.72"/><line class="cls-4" x1="17.88" y1="391.96" x2="17.88" y2="358.71"/><line class="cls-4" x1="27.01" y1="358.71" x2="27.01" y2="391.96"/><polyline class="cls-4" points="45.05 386.96 45.05 358.71 45.05 311.13 45.05 297.1 22.33 297.1 22.33 308.46"/><polyline class="cls-4" points="33.38 391.96 27.01 391.96 22.33 391.96 17.88 391.96 6.29 391.96 0.38 391.96 0.38 358.71 6.29 358.71 45.05 358.71 51.13 358.71 67.77 358.71 76.56 358.71 80.47 358.71 105.89 358.71 105.89 382.01"/><g id="Building_Contents" data-name="Building Contents"><polygon class="cls-1" points="778.61 367.35 773.63 367.35 773.63 381.55 778.61 381.86 778.61 367.35"/><path class="cls-1" d="M781.6,365.83a5.49,5.49,0,0,0-11,0v15.55l11,.66Z"/><rect class="cls-1" x="780.13" y="291.62" width="6.21" height="11.3"/><path class="cls-1" d="M780.13,291.62c0,3.72,4.62,9.67,6.21,9.67"/><path class="cls-1" d="M780.13,291.23a3.11,3.11,0,0,1,6.21,0"/><rect class="cls-1" x="765.89" y="291.62" width="6.21" height="11.3"/><polyline class="cls-1" points="769 293.42 770.64 293.42 770.64 297.26"/><path class="cls-1" d="M765.89,291.23a3.11,3.11,0,0,1,6.22,0"/><rect class="cls-1" x="780.13" y="310.04" width="6.21" height="11.3"/><path class="cls-1" d="M780.13,310c0,3.73,4.62,9.68,6.21,9.68"/><path class="cls-1" d="M780.13,309.66a3.11,3.11,0,1,1,6.21,0"/><rect class="cls-1" x="765.89" y="310.04" width="6.21" height="11.3"/><polyline class="cls-1" points="769 311.85 770.64 311.85 770.64 315.69"/><path class="cls-1" d="M765.89,309.66a3.11,3.11,0,0,1,6.22,0"/><rect class="cls-1" x="780.13" y="328.47" width="6.21" height="11.3"/><path class="cls-1" d="M780.13,328.47c0,3.72,4.62,9.67,6.21,9.67"/><path class="cls-1" d="M780.13,328.08a3.11,3.11,0,0,1,6.21,0"/><rect class="cls-1" x="765.89" y="328.47" width="6.21" height="11.3"/><polyline class="cls-1" points="769 330.27 770.64 330.27 770.64 334.11"/><path class="cls-1" d="M765.89,328.08a3.11,3.11,0,0,1,6.22,0"/><rect class="cls-1" x="780.13" y="346.89" width="6.21" height="11.3"/><path class="cls-1" d="M780.13,346.89c0,3.73,4.62,9.68,6.21,9.68"/><path class="cls-1" d="M780.13,346.51a3.11,3.11,0,1,1,6.21,0"/><rect class="cls-1" x="765.89" y="346.89" width="6.21" height="11.3"/><polyline class="cls-1" points="769 348.7 770.64 348.7 770.64 352.54"/><path class="cls-1" d="M765.89,346.51a3.11,3.11,0,0,1,6.22,0"/><rect class="cls-1" x="860.32" y="327.74" width="6.61" height="12.02"/><path class="cls-1" d="M860.32,327.74c2.08,5.05,4.28,9.5,6.61,10.22"/><rect class="cls-1" x="823.56" y="327.74" width="6.61" height="12.02"/><path class="cls-1" d="M823.56,327.74c2.08,5.05,4.29,9.5,6.61,10.22"/><rect class="cls-1" x="860.32" y="309.32" width="6.61" height="12.02"/><path class="cls-1" d="M860.32,309.32c2.08,5.05,4.28,9.49,6.61,10.22"/><rect class="cls-1" x="823.56" y="309.32" width="6.61" height="12.02"/><path class="cls-1" d="M823.56,309.32c2.08,5.05,4.29,9.49,6.61,10.22"/><rect class="cls-1" x="860.32" y="290.89" width="6.61" height="12.02"/><path class="cls-1" d="M860.32,290.89c2.08,5.05,4.28,9.5,6.61,10.22"/><rect class="cls-1" x="823.56" y="290.89" width="6.61" height="12.02"/><path class="cls-1" d="M823.56,290.89c2.08,5.05,4.29,9.5,6.61,10.22"/><rect class="cls-1" x="841.94" y="272.47" width="6.61" height="12.02"/><polyline class="cls-1" points="845.25 274.39 846.99 274.39 846.99 278.48"/><polyline class="cls-1" points="845.26 282.69 843.52 282.69 843.52 278.6"/><rect class="cls-1" x="841.94" y="290.89" width="6.61" height="12.02"/><polyline class="cls-1" points="845.25 292.82 846.99 292.82 846.99 296.9"/><polyline class="cls-1" points="845.26 301.11 843.52 301.11 843.52 297.02"/><rect class="cls-1" x="841.94" y="309.32" width="6.61" height="12.02"/><polyline class="cls-1" points="845.25 311.24 846.99 311.24 846.99 315.33"/><polyline class="cls-1" points="845.26 319.54 843.52 319.54 843.52 315.45"/><rect class="cls-1" x="841.94" y="327.74" width="6.61" height="12.02"/><polyline class="cls-1" points="845.25 329.67 846.99 329.67 846.99 333.75"/><polyline class="cls-1" points="845.26 337.96 843.52 337.96 843.52 333.87"/><rect class="cls-1" x="841.94" y="346.17" width="6.61" height="12.02"/><polyline class="cls-1" points="845.25 348.09 846.99 348.09 846.99 352.18"/><polyline class="cls-1" points="845.26 356.38 843.52 356.38 843.52 352.3"/><rect class="cls-1" x="860.32" y="272.47" width="6.61" height="12.02"/><path class="cls-1" d="M860.32,272.47c2.08,5,4.28,9.49,6.61,10.22"/><rect class="cls-1" x="823.56" y="272.47" width="6.61" height="12.02"/><path class="cls-1" d="M823.56,272.47c2.08,5,4.29,9.49,6.61,10.22"/><rect class="cls-1" x="860.32" y="346.17" width="6.61" height="12.02"/><path class="cls-1" d="M860.32,346.17c2.08,5.05,4.28,9.49,6.61,10.22"/><rect class="cls-1" x="823.56" y="346.17" width="6.61" height="12.02"/><path class="cls-1" d="M823.56,346.17c2.08,5.05,4.29,9.49,6.61,10.22"/><polygon class="cls-1" points="840.26 370.95 835.27 370.95 835.27 385.15 840.26 385.46 840.26 370.95"/><polygon class="cls-1" points="855.22 370.95 850.23 370.95 850.23 386.07 855.22 386.39 855.22 370.95"/><path class="cls-1" d="M843.25,369.44a5.49,5.49,0,1,0-11,0V385l11,.65Z"/><path class="cls-1" d="M858.21,369.44a5.49,5.49,0,1,0-11,0v16.45l11,.68Z"/><rect class="cls-1" x="71.48" y="328.97" width="5.29" height="9.62"/><polyline class="cls-1" points="74.12 330.51 75.51 330.51 75.51 333.78"/><rect class="cls-1" x="71.48" y="314.23" width="5.29" height="9.62"/><path class="cls-1" d="M71.48,314.23c1.66,4,3.43,7.6,5.28,8.18"/><rect class="cls-1" x="71.48" y="343.71" width="5.29" height="9.62"/><path class="cls-1" d="M71.48,343.71c1.66,4,3.43,7.6,5.28,8.18"/><rect class="cls-1" x="26.4" y="302.93" width="5.29" height="9.62"/><polyline class="cls-1" points="29.04 304.46 30.44 304.46 30.44 307.73"/><rect class="cls-1" x="26.4" y="317.67" width="5.29" height="9.62"/><path class="cls-1" d="M26.4,317.67c1.66,4,3.43,7.59,5.29,8.17"/><rect class="cls-1" x="26.4" y="332.41" width="5.29" height="9.62"/><polyline class="cls-1" points="29.04 333.94 30.44 333.94 30.44 337.21"/><rect class="cls-1" x="26.4" y="347.15" width="5.29" height="9.62"/><path class="cls-1" d="M26.4,347.15c1.66,4,3.43,7.59,5.29,8.17"/><rect class="cls-1" x="35.69" y="302.93" width="5.29" height="9.62"/><polyline class="cls-1" points="38.34 304.46 39.73 304.46 39.73 307.73"/><rect class="cls-1" x="35.69" y="317.67" width="5.29" height="9.62"/><path class="cls-1" d="M35.69,317.67c1.67,4,3.43,7.59,5.29,8.17"/><rect class="cls-1" x="35.69" y="332.41" width="5.29" height="9.62"/><polyline class="cls-1" points="38.34 333.94 39.73 333.94 39.73 337.21"/><rect class="cls-1" x="35.69" y="347.15" width="5.29" height="9.62"/><path class="cls-1" d="M35.69,347.15c1.67,4,3.43,7.59,5.29,8.17"/><rect class="cls-1" x="49.12" y="314.23" width="5.29" height="9.62"/><polyline class="cls-1" points="51.76 315.77 53.16 315.77 53.16 319.04"/><rect class="cls-1" x="49.12" y="328.97" width="5.29" height="9.62"/><path class="cls-1" d="M49.12,329c1.67,4,3.43,7.6,5.29,8.18"/><rect class="cls-1" x="49.12" y="343.71" width="5.29" height="9.62"/><polyline class="cls-1" points="51.76 345.25 53.16 345.25 53.16 348.52"/><rect class="cls-1" x="58.41" y="314.23" width="5.29" height="9.62"/><polyline class="cls-1" points="61.06 315.77 62.45 315.77 62.45 319.04"/><rect class="cls-1" x="58.41" y="328.97" width="5.29" height="9.62"/><path class="cls-1" d="M58.41,329c1.67,4,3.44,7.6,5.29,8.18"/><rect class="cls-1" x="58.41" y="343.71" width="5.29" height="9.62"/><polyline class="cls-1" points="61.06 345.25 62.45 345.25 62.45 348.52"/><rect class="cls-1" x="11.67" y="332.41" width="5.29" height="9.62"/><polyline class="cls-1" points="14.31 333.94 15.71 333.94 15.71 337.21"/><rect class="cls-1" x="11.67" y="317.67" width="5.29" height="9.62"/><path class="cls-1" d="M11.67,317.67c1.66,4,3.43,7.59,5.29,8.17"/><rect class="cls-1" x="11.67" y="347.15" width="5.29" height="9.62"/><path class="cls-1" d="M11.67,347.15c1.66,4,3.43,7.59,5.29,8.17"/><rect class="cls-1" x="459.4" y="242.88" width="6.61" height="12.02"/><polyline class="cls-1" points="462.71 244.8 464.45 244.8 464.45 248.89"/><rect class="cls-1" x="444" y="261.3" width="6.61" height="12.02"/><polyline class="cls-1" points="447.3 263.23 449.05 263.23 449.05 267.31"/><rect class="cls-1" x="459.4" y="261.3" width="6.61" height="12.02"/><path class="cls-1" d="M459.4,261.3c2.08,5.05,4.29,9.5,6.61,10.22"/><rect class="cls-1" x="444" y="242.88" width="6.61" height="12.02"/><path class="cls-1" d="M444,242.88c2.08,5.05,4.28,9.49,6.61,10.22"/><rect class="cls-1" x="459.4" y="316.58" width="6.61" height="12.02"/><polyline class="cls-1" points="462.71 318.5 464.45 318.5 464.45 322.59"/><rect class="cls-1" x="459.4" y="335.86" width="6.61" height="12.02"/><polyline class="cls-1" points="462.71 337.78 464.45 337.78 464.45 341.87"/><rect class="cls-1" x="444" y="316.58" width="6.61" height="12.02"/><path class="cls-1" d="M444,316.58c2.08,5.05,4.28,9.49,6.61,10.22"/><rect class="cls-1" x="459.4" y="279.73" width="6.61" height="12.02"/><polyline class="cls-1" points="462.71 281.65 464.45 281.65 464.45 285.74"/><rect class="cls-1" x="444" y="298.15" width="6.61" height="12.02"/><polyline class="cls-1" points="447.3 300.08 449.05 300.08 449.05 304.16"/><rect class="cls-1" x="459.4" y="298.15" width="6.61" height="12.02"/><path class="cls-1" d="M459.4,298.15c2.08,5.05,4.29,9.5,6.61,10.22"/><rect class="cls-1" x="444" y="279.73" width="6.61" height="12.02"/><path class="cls-1" d="M444,279.73c2.08,5,4.28,9.49,6.61,10.22"/><rect class="cls-1" x="730.43" y="272.47" width="6.61" height="12.02"/><line class="cls-1" x1="733.73" y1="272.47" x2="733.73" y2="284.53"/><line class="cls-1" x1="730.43" y1="278.48" x2="737.04" y2="278.48"/><rect class="cls-1" x="745.03" y="272.47" width="6.61" height="12.02"/><line class="cls-1" x1="748.33" y1="272.47" x2="748.33" y2="284.53"/><line class="cls-1" x1="745.03" y1="278.48" x2="751.64" y2="278.48"/><rect class="cls-1" x="730.43" y="290.89" width="6.61" height="12.02"/><line class="cls-1" x1="733.73" y1="290.89" x2="733.73" y2="302.96"/><line class="cls-1" x1="730.43" y1="296.9" x2="737.04" y2="296.9"/><rect class="cls-1" x="745.03" y="290.89" width="6.61" height="12.02"/><line class="cls-1" x1="748.33" y1="290.89" x2="748.33" y2="302.96"/><line class="cls-1" x1="745.03" y1="296.9" x2="751.64" y2="296.9"/><rect class="cls-1" x="730.43" y="309.32" width="6.61" height="12.02"/><line class="cls-1" x1="733.73" y1="309.32" x2="733.73" y2="321.38"/><line class="cls-1" x1="730.43" y1="315.33" x2="737.04" y2="315.33"/><rect class="cls-1" x="745.03" y="309.32" width="6.61" height="12.02"/><line class="cls-1" x1="748.33" y1="309.32" x2="748.33" y2="321.38"/><line class="cls-1" x1="745.03" y1="315.33" x2="751.64" y2="315.33"/><rect class="cls-1" x="730.43" y="327.74" width="6.61" height="12.02"/><line class="cls-1" x1="733.73" y1="327.74" x2="733.73" y2="339.81"/><line class="cls-1" x1="730.43" y1="333.75" x2="737.04" y2="333.75"/><rect class="cls-1" x="745.03" y="327.74" width="6.61" height="12.02"/><line class="cls-1" x1="748.33" y1="327.74" x2="748.33" y2="339.81"/><line class="cls-1" x1="745.03" y1="333.75" x2="751.64" y2="333.75"/><rect class="cls-1" x="730.43" y="346.17" width="6.61" height="12.02"/><line class="cls-1" x1="733.73" y1="346.17" x2="733.73" y2="358.23"/><line class="cls-1" x1="730.43" y1="352.18" x2="737.04" y2="352.18"/><rect class="cls-1" x="745.03" y="346.17" width="6.61" height="12.02"/><line class="cls-1" x1="748.33" y1="346.17" x2="748.33" y2="358.23"/><line class="cls-1" x1="745.03" y1="352.18" x2="751.64" y2="352.18"/><polygon class="cls-1" points="748.97 367.93 733.1 367.93 733.1 379.16 748.97 380.3 748.97 367.93"/><polygon class="cls-1" points="751.64 361.07 730.43 361.07 730.43 379.16 751.64 380.3 751.64 361.07"/><rect class="cls-1" x="476.78" y="309.32" width="6.61" height="12.02"/><line class="cls-1" x1="480.08" y1="309.32" x2="480.08" y2="321.38"/><line class="cls-1" x1="476.78" y1="315.33" x2="483.39" y2="315.33"/><rect class="cls-1" x="476.78" y="327.7" width="6.61" height="12.02"/><line class="cls-1" x1="480.08" y1="327.7" x2="480.08" y2="339.76"/><line class="cls-1" x1="476.78" y1="333.71" x2="483.39" y2="333.71"/><rect class="cls-1" x="476.78" y="346.12" width="6.61" height="12.02"/><line class="cls-1" x1="480.08" y1="346.12" x2="480.08" y2="358.19"/><line class="cls-1" x1="476.78" y1="352.13" x2="483.39" y2="352.13"/><rect class="cls-1" x="476.78" y="364.55" width="6.61" height="12.02"/><line class="cls-1" x1="480.08" y1="364.55" x2="480.08" y2="376.61"/><line class="cls-1" x1="476.78" y1="370.56" x2="483.39" y2="370.56"/><rect class="cls-1" x="476.78" y="290.85" width="6.61" height="12.02"/><line class="cls-1" x1="480.08" y1="290.85" x2="480.08" y2="302.91"/><line class="cls-1" x1="476.78" y1="296.86" x2="483.39" y2="296.86"/><rect class="cls-1" x="285.99" y="309.32" width="6.61" height="12.02"/><line class="cls-1" x1="289.3" y1="309.32" x2="289.3" y2="321.38"/><line class="cls-1" x1="285.99" y1="315.33" x2="292.6" y2="315.33"/><rect class="cls-1" x="285.99" y="327.74" width="6.61" height="12.02"/><line class="cls-1" x1="289.3" y1="327.74" x2="289.3" y2="339.81"/><line class="cls-1" x1="285.99" y1="333.75" x2="292.6" y2="333.75"/><rect class="cls-1" x="285.99" y="346.17" width="6.61" height="12.02"/><line class="cls-1" x1="289.3" y1="346.17" x2="289.3" y2="358.23"/><line class="cls-1" x1="285.99" y1="352.18" x2="292.6" y2="352.18"/><rect class="cls-1" x="285.99" y="364.72" width="6.61" height="12.02"/><line class="cls-1" x1="289.3" y1="364.72" x2="289.3" y2="376.78"/><line class="cls-1" x1="285.99" y1="370.73" x2="292.6" y2="370.73"/><rect class="cls-1" x="239.71" y="315.43" width="4.96" height="9.01"/><line class="cls-1" x1="242.18" y1="315.43" x2="242.18" y2="324.48"/><line class="cls-1" x1="239.71" y1="319.94" x2="244.66" y2="319.94"/><rect class="cls-1" x="239.71" y="329.25" width="4.96" height="9.01"/><line class="cls-1" x1="242.18" y1="329.25" x2="242.18" y2="338.3"/><line class="cls-1" x1="239.71" y1="333.76" x2="244.66" y2="333.76"/><rect class="cls-1" x="239.71" y="343.07" width="4.96" height="9.01"/><line class="cls-1" x1="242.18" y1="343.07" x2="242.18" y2="352.12"/><line class="cls-1" x1="239.71" y1="347.58" x2="244.66" y2="347.58"/><rect class="cls-1" x="239.71" y="356.89" width="4.96" height="9.01"/><line class="cls-1" x1="242.18" y1="356.89" x2="242.18" y2="365.94"/><line class="cls-1" x1="239.71" y1="361.4" x2="244.66" y2="361.4"/><rect class="cls-1" x="223.27" y="293.76" width="4.96" height="9.01"/><line class="cls-1" x1="225.75" y1="293.76" x2="225.75" y2="302.81"/><line class="cls-1" x1="223.27" y1="298.26" x2="228.23" y2="298.26"/><rect class="cls-1" x="223.27" y="307.58" width="4.96" height="9.01"/><line class="cls-1" x1="225.75" y1="307.58" x2="225.75" y2="316.62"/><line class="cls-1" x1="223.27" y1="312.08" x2="228.23" y2="312.08"/><rect class="cls-1" x="223.27" y="321.4" width="4.96" height="9.01"/><line class="cls-1" x1="225.75" y1="321.4" x2="225.75" y2="330.44"/><line class="cls-1" x1="223.27" y1="325.9" x2="228.23" y2="325.9"/><rect class="cls-1" x="223.27" y="335.21" width="4.96" height="9.01"/><line class="cls-1" x1="225.75" y1="335.21" x2="225.75" y2="344.26"/><line class="cls-1" x1="223.27" y1="339.72" x2="228.23" y2="339.72"/><rect class="cls-1" x="230.08" y="293.76" width="4.96" height="9.01"/><line class="cls-1" x1="232.56" y1="293.76" x2="232.56" y2="302.81"/><line class="cls-1" x1="230.08" y1="298.26" x2="235.03" y2="298.26"/><rect class="cls-1" x="230.08" y="307.58" width="4.96" height="9.01"/><line class="cls-1" x1="232.56" y1="307.58" x2="232.56" y2="316.62"/><line class="cls-1" x1="230.08" y1="312.08" x2="235.03" y2="312.08"/><rect class="cls-1" x="230.08" y="321.4" width="4.96" height="9.01"/><line class="cls-1" x1="232.56" y1="321.4" x2="232.56" y2="330.44"/><line class="cls-1" x1="230.08" y1="325.9" x2="235.03" y2="325.9"/><rect class="cls-1" x="230.08" y="335.21" width="4.96" height="9.01"/><line class="cls-1" x1="232.56" y1="335.21" x2="232.56" y2="344.26"/><line class="cls-1" x1="230.08" y1="339.72" x2="235.03" y2="339.72"/><rect class="cls-1" x="223.27" y="349.03" width="4.96" height="9.01"/><line class="cls-1" x1="225.75" y1="349.03" x2="225.75" y2="358.08"/><line class="cls-1" x1="223.27" y1="353.54" x2="228.23" y2="353.54"/><rect class="cls-1" x="230.08" y="349.03" width="4.96" height="9.01"/><line class="cls-1" x1="232.56" y1="349.03" x2="232.56" y2="358.08"/><line class="cls-1" x1="230.08" y1="353.54" x2="235.03" y2="353.54"/><rect class="cls-1" x="223.27" y="362.85" width="4.96" height="9.01"/><line class="cls-1" x1="225.75" y1="362.85" x2="225.75" y2="371.9"/><line class="cls-1" x1="223.27" y1="367.36" x2="228.23" y2="367.36"/><rect class="cls-1" x="230.08" y="362.85" width="4.96" height="9.01"/><line class="cls-1" x1="232.56" y1="362.85" x2="232.56" y2="371.9"/><line class="cls-1" x1="230.08" y1="367.36" x2="235.03" y2="367.36"/><rect class="cls-1" x="402.6" y="254.84" width="6.61" height="12.02"/><polyline class="cls-1" points="405.91 256.76 407.65 256.76 407.65 260.85"/><rect class="cls-1" x="402.6" y="328.54" width="6.61" height="12.02"/><polyline class="cls-1" points="405.91 330.46 407.65 330.46 407.65 334.55"/><rect class="cls-1" x="402.6" y="366.2" width="6.61" height="12.02"/><polyline class="cls-1" points="405.91 368.12 407.65 368.12 407.65 372.21"/><rect class="cls-1" x="402.6" y="291.69" width="6.61" height="12.02"/><polyline class="cls-1" points="405.91 293.62 407.65 293.62 407.65 297.7"/><rect class="cls-1" x="402.6" y="310.12" width="6.61" height="12.02"/><line class="cls-1" x1="405.91" y1="310.12" x2="405.91" y2="322.18"/><line class="cls-1" x1="402.6" y1="316.13" x2="409.21" y2="316.13"/><rect class="cls-1" x="402.6" y="347.82" width="6.61" height="12.02"/><line class="cls-1" x1="405.91" y1="347.82" x2="405.91" y2="359.88"/><line class="cls-1" x1="402.6" y1="353.83" x2="409.21" y2="353.83"/><rect class="cls-1" x="402.6" y="273.27" width="6.61" height="12.02"/><line class="cls-1" x1="405.91" y1="273.27" x2="405.91" y2="285.33"/><line class="cls-1" x1="402.6" y1="279.28" x2="409.21" y2="279.28"/><g id="Far_Right_Building" data-name="Far Right Building"><rect class="cls-1" x="891.06" y="217.2" width="6.61" height="12.02"/><polyline class="cls-1" points="894.36 219.12 896.1 219.12 896.1 223.21"/><rect class="cls-1" x="906.23" y="217.2" width="6.61" height="12.02"/><path class="cls-1" d="M906.23,217.2c2.08,5,4.29,9.49,6.61,10.21"/><rect class="cls-1" x="921.4" y="217.2" width="6.61" height="12.02"/><polyline class="cls-1" points="924.7 219.12 926.45 219.12 926.45 223.21"/><rect class="cls-1" x="936.57" y="217.2" width="6.61" height="12.02"/><path class="cls-1" d="M936.57,217.2c2.08,5,4.29,9.49,6.61,10.21"/><rect class="cls-1" x="891.06" y="235.62" width="6.61" height="12.02"/><polyline class="cls-1" points="894.36 237.54 896.1 237.54 896.1 241.63"/><rect class="cls-1" x="906.23" y="235.62" width="6.61" height="12.02"/><path class="cls-1" d="M906.23,235.62c2.08,5,4.29,9.5,6.61,10.22"/><rect class="cls-1" x="921.4" y="235.62" width="6.61" height="12.02"/><polyline class="cls-1" points="924.7 237.54 926.45 237.54 926.45 241.63"/><rect class="cls-1" x="936.57" y="235.62" width="6.61" height="12.02"/><path class="cls-1" d="M936.57,235.62c2.08,5,4.29,9.5,6.61,10.22"/><rect class="cls-1" x="891.06" y="254.04" width="6.61" height="12.02"/><polyline class="cls-1" points="894.36 255.97 896.1 255.97 896.1 260.05"/><rect class="cls-1" x="906.23" y="254.04" width="6.61" height="12.02"/><path class="cls-1" d="M906.23,254c2.08,5,4.29,9.5,6.61,10.22"/><rect class="cls-1" x="921.4" y="254.04" width="6.61" height="12.02"/><polyline class="cls-1" points="924.7 255.97 926.45 255.97 926.45 260.05"/><rect class="cls-1" x="936.57" y="254.04" width="6.61" height="12.02"/><path class="cls-1" d="M936.57,254c2.08,5,4.29,9.5,6.61,10.22"/><rect class="cls-1" x="891.06" y="272.47" width="6.61" height="12.02"/><polyline class="cls-1" points="894.36 274.39 896.1 274.39 896.1 278.48"/><rect class="cls-1" x="906.23" y="272.47" width="6.61" height="12.02"/><path class="cls-1" d="M906.23,272.47c2.08,5,4.29,9.49,6.61,10.22"/><rect class="cls-1" x="921.4" y="272.47" width="6.61" height="12.02"/><polyline class="cls-1" points="924.7 274.39 926.45 274.39 926.45 278.48"/><rect class="cls-1" x="936.57" y="272.47" width="6.61" height="12.02"/><path class="cls-1" d="M936.57,272.47c2.08,5,4.29,9.49,6.61,10.22"/><rect class="cls-1" x="891.06" y="290.89" width="6.61" height="12.02"/><polyline class="cls-1" points="894.36 292.82 896.1 292.82 896.1 296.9"/><rect class="cls-1" x="906.23" y="290.89" width="6.61" height="12.02"/><path class="cls-1" d="M906.23,290.89c2.08,5.05,4.29,9.5,6.61,10.22"/><rect class="cls-1" x="921.4" y="290.89" width="6.61" height="12.02"/><polyline class="cls-1" points="924.7 292.82 926.45 292.82 926.45 296.9"/><rect class="cls-1" x="936.57" y="290.89" width="6.61" height="12.02"/><path class="cls-1" d="M936.57,290.89c2.08,5.05,4.29,9.5,6.61,10.22"/><rect class="cls-1" x="891.06" y="309.32" width="6.61" height="12.02"/><polyline class="cls-1" points="894.36 311.24 896.1 311.24 896.1 315.33"/><rect class="cls-1" x="906.23" y="309.32" width="6.61" height="12.02"/><path class="cls-1" d="M906.23,309.32c2.08,5.05,4.29,9.49,6.61,10.22"/><rect class="cls-1" x="921.4" y="309.32" width="6.61" height="12.02"/><polyline class="cls-1" points="924.7 311.24 926.45 311.24 926.45 315.33"/><rect class="cls-1" x="936.57" y="309.32" width="6.61" height="12.02"/><path class="cls-1" d="M936.57,309.32c2.08,5.05,4.29,9.49,6.61,10.22"/><rect class="cls-1" x="891.06" y="327.74" width="6.61" height="12.02"/><polyline class="cls-1" points="894.36 329.67 896.1 329.67 896.1 333.75"/><rect class="cls-1" x="906.23" y="327.74" width="6.61" height="12.02"/><path class="cls-1" d="M906.23,327.74c2.08,5.05,4.29,9.5,6.61,10.22"/><rect class="cls-1" x="921.4" y="327.74" width="6.61" height="12.02"/><polyline class="cls-1" points="924.7 329.67 926.45 329.67 926.45 333.75"/><rect class="cls-1" x="936.57" y="327.74" width="6.61" height="12.02"/><path class="cls-1" d="M936.57,327.74c2.08,5.05,4.29,9.5,6.61,10.22"/><rect class="cls-1" x="891.06" y="346.17" width="6.61" height="12.02"/><polyline class="cls-1" points="894.36 348.09 896.1 348.09 896.1 352.18"/><rect class="cls-1" x="906.23" y="346.17" width="6.61" height="12.02"/><path class="cls-1" d="M906.23,346.17c2.08,5.05,4.29,9.49,6.61,10.22"/><rect class="cls-1" x="921.4" y="346.17" width="6.61" height="12.02"/><polyline class="cls-1" points="924.7 348.09 926.45 348.09 926.45 352.18"/><rect class="cls-1" x="936.57" y="346.17" width="6.61" height="12.02"/><path class="cls-1" d="M936.57,346.17c2.08,5.05,4.29,9.49,6.61,10.22"/><polygon class="cls-1" points="939.87 362.99 923.38 362.99 923.38 390.65 939.87 392.02 939.87 362.99"/><polygon class="cls-1" points="936.67 371.19 926.58 371.19 926.58 390.65 936.67 391.75 936.67 371.19"/><polygon class="cls-1" points="910.86 362.99 894.36 362.99 894.36 388.9 910.86 390.01 910.86 362.99"/><polygon class="cls-1" points="907.75 371.19 897.67 371.19 897.67 389.13 907.75 389.79 907.75 371.19"/><path class="cls-1" d="M891.06,217.2a3.31,3.31,0,1,1,6.61,0"/><path class="cls-1" d="M906.23,217.2a3.31,3.31,0,1,1,6.61,0"/><path class="cls-1" d="M921.4,217.2a3.31,3.31,0,1,1,6.61,0"/><path class="cls-1" d="M936.57,217.2a3.31,3.31,0,1,1,6.61,0"/><path class="cls-1" d="M891.06,254a3.31,3.31,0,0,1,6.61,0"/><path class="cls-1" d="M906.23,254a3.31,3.31,0,0,1,6.61,0"/><path class="cls-1" d="M921.4,254a3.31,3.31,0,0,1,6.61,0"/><path class="cls-1" d="M936.57,254a3.31,3.31,0,0,1,6.61,0"/><path class="cls-1" d="M936.57,290.89a3.31,3.31,0,0,1,6.61,0"/><path class="cls-1" d="M921.4,290.89a3.31,3.31,0,0,1,6.61,0"/><path class="cls-1" d="M906.23,290.89a3.31,3.31,0,0,1,6.61,0"/><path class="cls-1" d="M891.06,290.89a3.31,3.31,0,0,1,6.61,0"/><path class="cls-1" d="M891.06,327.74a3.31,3.31,0,0,1,6.61,0"/><path class="cls-1" d="M906.23,327.74a3.31,3.31,0,0,1,6.61,0"/><path class="cls-1" d="M921.4,327.74a3.31,3.31,0,0,1,6.61,0"/><path class="cls-1" d="M936.57,327.74a3.31,3.31,0,0,1,6.61,0"/></g><g id="Right_High_Rise" data-name="Right High Rise"><g id="High_Rise" data-name="High Rise"><line class="cls-2" x1="865.66" y1="102.77" x2="865.66" y2="107.16"/><line class="cls-2" x1="872.34" y1="102.77" x2="872.34" y2="107.16"/><line class="cls-2" x1="879.03" y1="102.77" x2="879.03" y2="107.16"/><line class="cls-2" x1="885.71" y1="102.77" x2="885.71" y2="107.16"/><line class="cls-2" x1="892.39" y1="102.77" x2="892.39" y2="107.16"/><line class="cls-2" x1="899.07" y1="102.77" x2="899.07" y2="107.16"/><line class="cls-2" x1="905.76" y1="102.77" x2="905.76" y2="107.16"/></g><g id="High_Rise-2" data-name="High Rise"><line class="cls-2" x1="865.66" y1="113.46" x2="865.66" y2="117.85"/><line class="cls-2" x1="872.34" y1="113.46" x2="872.34" y2="117.85"/><line class="cls-2" x1="879.03" y1="113.46" x2="879.03" y2="117.85"/><line class="cls-2" x1="885.71" y1="113.46" x2="885.71" y2="117.85"/><line class="cls-2" x1="892.39" y1="113.46" x2="892.39" y2="117.85"/><line class="cls-2" x1="899.07" y1="113.46" x2="899.07" y2="117.85"/><line class="cls-2" x1="905.76" y1="113.46" x2="905.76" y2="117.85"/></g><g id="High_Rise-3" data-name="High Rise"><line class="cls-2" x1="865.66" y1="124.15" x2="865.66" y2="128.54"/><line class="cls-2" x1="872.34" y1="124.15" x2="872.34" y2="128.54"/><line class="cls-2" x1="879.03" y1="124.15" x2="879.03" y2="128.54"/><line class="cls-2" x1="885.71" y1="124.15" x2="885.71" y2="128.54"/><line class="cls-2" x1="892.39" y1="124.15" x2="892.39" y2="128.54"/><line class="cls-2" x1="899.07" y1="124.15" x2="899.07" y2="128.54"/><line class="cls-2" x1="905.76" y1="124.15" x2="905.76" y2="128.54"/></g><g id="High_Rise-4" data-name="High Rise"><line class="cls-2" x1="865.66" y1="134.85" x2="865.66" y2="139.23"/><line class="cls-2" x1="872.34" y1="134.85" x2="872.34" y2="139.23"/><line class="cls-2" x1="879.03" y1="134.85" x2="879.03" y2="139.23"/><line class="cls-2" x1="885.71" y1="134.85" x2="885.71" y2="139.23"/><line class="cls-2" x1="892.39" y1="134.85" x2="892.39" y2="139.23"/><line class="cls-2" x1="899.07" y1="134.85" x2="899.07" y2="139.23"/><line class="cls-2" x1="905.76" y1="134.85" x2="905.76" y2="139.23"/></g><g id="High_Rise-5" data-name="High Rise"><line class="cls-2" x1="865.66" y1="145.54" x2="865.66" y2="149.93"/><line class="cls-2" x1="872.34" y1="145.54" x2="872.34" y2="149.93"/><line class="cls-2" x1="879.03" y1="145.54" x2="879.03" y2="149.93"/><line class="cls-2" x1="885.71" y1="145.54" x2="885.71" y2="149.93"/><line class="cls-2" x1="892.39" y1="145.54" x2="892.39" y2="149.93"/><line class="cls-2" x1="899.07" y1="145.54" x2="899.07" y2="149.93"/><line class="cls-2" x1="905.76" y1="145.54" x2="905.76" y2="149.93"/></g><g id="High_Rise-6" data-name="High Rise"><line class="cls-2" x1="865.66" y1="156.23" x2="865.66" y2="160.62"/><line class="cls-2" x1="872.34" y1="156.23" x2="872.34" y2="160.62"/><line class="cls-2" x1="879.03" y1="156.23" x2="879.03" y2="160.62"/><line class="cls-2" x1="885.71" y1="156.23" x2="885.71" y2="160.62"/><line class="cls-2" x1="892.39" y1="156.23" x2="892.39" y2="160.62"/><line class="cls-2" x1="899.07" y1="156.23" x2="899.07" y2="160.62"/><line class="cls-2" x1="905.76" y1="156.23" x2="905.76" y2="160.62"/></g><g id="High_Rise-7" data-name="High Rise"><line class="cls-2" x1="865.66" y1="166.92" x2="865.66" y2="171.31"/><line class="cls-2" x1="872.34" y1="166.92" x2="872.34" y2="171.31"/><line class="cls-2" x1="879.03" y1="166.92" x2="879.03" y2="171.31"/><line class="cls-2" x1="885.71" y1="166.92" x2="885.71" y2="171.31"/><line class="cls-2" x1="892.39" y1="166.92" x2="892.39" y2="171.31"/><line class="cls-2" x1="899.07" y1="166.92" x2="899.07" y2="171.31"/><line class="cls-2" x1="905.76" y1="166.92" x2="905.76" y2="171.31"/></g><g id="High_Rise-8" data-name="High Rise"><line class="cls-2" x1="865.66" y1="177.61" x2="865.66" y2="182"/><line class="cls-2" x1="872.34" y1="177.61" x2="872.34" y2="182"/><line class="cls-2" x1="879.03" y1="177.61" x2="879.03" y2="182"/><line class="cls-2" x1="885.71" y1="177.61" x2="885.71" y2="182"/><line class="cls-2" x1="892.39" y1="177.61" x2="892.39" y2="182"/><line class="cls-2" x1="899.07" y1="177.61" x2="899.07" y2="182"/><line class="cls-2" x1="905.76" y1="177.61" x2="905.76" y2="182"/></g><g id="High_Rise-9" data-name="High Rise"><line class="cls-2" x1="865.66" y1="188.31" x2="865.66" y2="192.69"/><line class="cls-2" x1="872.34" y1="188.31" x2="872.34" y2="192.69"/><line class="cls-2" x1="879.03" y1="188.31" x2="879.03" y2="192.69"/><line class="cls-2" x1="885.71" y1="188.31" x2="885.71" y2="192.69"/><line class="cls-2" x1="892.39" y1="188.31" x2="892.39" y2="192.69"/><line class="cls-2" x1="899.07" y1="188.31" x2="899.07" y2="192.69"/><line class="cls-2" x1="905.76" y1="188.31" x2="905.76" y2="192.69"/></g><g id="High_Rise-10" data-name="High Rise"><line class="cls-2" x1="872.34" y1="199" x2="872.34" y2="203.39"/><line class="cls-2" x1="879.03" y1="199" x2="879.03" y2="203.39"/><line class="cls-2" x1="885.71" y1="199" x2="885.71" y2="203.39"/><line class="cls-2" x1="892.39" y1="199" x2="892.39" y2="203.39"/><line class="cls-2" x1="899.07" y1="199" x2="899.07" y2="203.39"/><line class="cls-2" x1="905.76" y1="199" x2="905.76" y2="203.39"/></g><g id="High_Rise-11" data-name="High Rise"><line class="cls-2" x1="872.34" y1="209.69" x2="872.34" y2="214.08"/><line class="cls-2" x1="879.03" y1="209.69" x2="879.03" y2="214.08"/></g><g id="High_Rise-12" data-name="High Rise"><line class="cls-2" x1="872.34" y1="220.38" x2="872.34" y2="224.77"/><line class="cls-2" x1="879.03" y1="220.38" x2="879.03" y2="224.77"/></g><g id="High_Rise-13" data-name="High Rise"><line class="cls-2" x1="872.34" y1="231.07" x2="872.34" y2="235.46"/><line class="cls-2" x1="879.03" y1="231.07" x2="879.03" y2="235.46"/></g><g id="High_Rise-14" data-name="High Rise"><line class="cls-2" x1="872.34" y1="241.77" x2="872.34" y2="246.15"/><line class="cls-2" x1="879.03" y1="241.77" x2="879.03" y2="246.15"/></g><g id="High_Rise-15" data-name="High Rise"><line class="cls-2" x1="879.03" y1="252.46" x2="879.03" y2="256.85"/></g><g id="High_Rise-16" data-name="High Rise"><line class="cls-2" x1="879.03" y1="263.15" x2="879.03" y2="267.54"/></g><g id="High_Rise-17" data-name="High Rise"><line class="cls-2" x1="879.03" y1="273.84" x2="879.03" y2="278.23"/></g><g id="High_Rise-18" data-name="High Rise"><line class="cls-2" x1="879.03" y1="284.53" x2="879.03" y2="288.92"/></g><g id="High_Rise-19" data-name="High Rise"><line class="cls-2" x1="879.03" y1="295.23" x2="879.03" y2="299.61"/></g><g id="High_Rise-20" data-name="High Rise"><line class="cls-2" x1="879.03" y1="305.92" x2="879.03" y2="310.31"/></g><g id="High_Rise-21" data-name="High Rise"><line class="cls-2" x1="879.03" y1="316.61" x2="879.03" y2="321"/></g><g id="High_Rise-22" data-name="High Rise"><line class="cls-2" x1="879.03" y1="327.3" x2="879.03" y2="331.69"/></g><g id="High_Rise-23" data-name="High Rise"><line class="cls-2" x1="879.03" y1="337.99" x2="879.03" y2="342.38"/></g><g id="High_Rise-24" data-name="High Rise"><line class="cls-2" x1="879.03" y1="348.69" x2="879.03" y2="353.07"/></g><g id="High_Rise-25" data-name="High Rise"><line class="cls-2" x1="879.03" y1="359.38" x2="879.03" y2="363.77"/></g><g id="High_Rise-26" data-name="High Rise"><line class="cls-2" x1="879.03" y1="370.07" x2="879.03" y2="374.46"/></g><g id="High_Rise-27" data-name="High Rise"><line class="cls-2" x1="879.03" y1="380.76" x2="879.03" y2="385.15"/></g></g><line class="cls-2" x1="302.33" y1="211.7" x2="302.33" y2="216.08"/><line class="cls-2" x1="308.74" y1="211.7" x2="308.74" y2="216.08"/><line class="cls-2" x1="315.16" y1="211.7" x2="315.16" y2="216.08"/><line class="cls-2" x1="321.57" y1="211.7" x2="321.57" y2="216.08"/><line class="cls-2" x1="327.99" y1="211.7" x2="327.99" y2="216.08"/><line class="cls-2" x1="334.4" y1="211.7" x2="334.4" y2="216.08"/><line class="cls-2" x1="302.33" y1="222.39" x2="302.33" y2="226.78"/><line class="cls-2" x1="308.74" y1="222.39" x2="308.74" y2="226.78"/><line class="cls-2" x1="315.16" y1="222.39" x2="315.16" y2="226.78"/><line class="cls-2" x1="321.57" y1="222.39" x2="321.57" y2="226.78"/><line class="cls-2" x1="327.99" y1="222.39" x2="327.99" y2="226.78"/><line class="cls-2" x1="334.4" y1="222.39" x2="334.4" y2="226.78"/><line class="cls-2" x1="302.33" y1="233.08" x2="302.33" y2="237.47"/><line class="cls-2" x1="308.74" y1="233.08" x2="308.74" y2="237.47"/><line class="cls-2" x1="315.16" y1="233.08" x2="315.16" y2="237.47"/><line class="cls-2" x1="321.57" y1="233.08" x2="321.57" y2="237.47"/><line class="cls-2" x1="327.99" y1="233.08" x2="327.99" y2="237.47"/><line class="cls-2" x1="334.4" y1="233.08" x2="334.4" y2="237.47"/><line class="cls-2" x1="302.33" y1="243.77" x2="302.33" y2="248.16"/><line class="cls-2" x1="308.74" y1="243.77" x2="308.74" y2="248.16"/><line class="cls-2" x1="315.16" y1="243.77" x2="315.16" y2="248.16"/><line class="cls-2" x1="321.57" y1="243.77" x2="321.57" y2="248.16"/><line class="cls-2" x1="327.99" y1="243.77" x2="327.99" y2="248.16"/><line class="cls-2" x1="334.4" y1="243.77" x2="334.4" y2="248.16"/><line class="cls-2" x1="302.33" y1="254.46" x2="302.33" y2="258.85"/><line class="cls-2" x1="308.74" y1="254.46" x2="308.74" y2="258.85"/><line class="cls-2" x1="315.16" y1="254.46" x2="315.16" y2="258.85"/><line class="cls-2" x1="321.57" y1="254.46" x2="321.57" y2="258.85"/><line class="cls-2" x1="327.99" y1="254.46" x2="327.99" y2="258.85"/><line class="cls-2" x1="334.4" y1="254.46" x2="334.4" y2="258.85"/><line class="cls-2" x1="302.33" y1="265.16" x2="302.33" y2="269.54"/><line class="cls-2" x1="308.74" y1="265.16" x2="308.74" y2="269.54"/><line class="cls-2" x1="315.16" y1="265.16" x2="315.16" y2="269.54"/><line class="cls-2" x1="321.57" y1="265.16" x2="321.57" y2="269.54"/><line class="cls-2" x1="327.99" y1="265.16" x2="327.99" y2="269.54"/><line class="cls-2" x1="334.4" y1="265.16" x2="334.4" y2="269.54"/><line class="cls-2" x1="302.33" y1="275.85" x2="302.33" y2="280.24"/><line class="cls-2" x1="308.74" y1="275.85" x2="308.74" y2="280.24"/><line class="cls-2" x1="315.16" y1="275.85" x2="315.16" y2="280.24"/><line class="cls-2" x1="321.57" y1="275.85" x2="321.57" y2="280.24"/><line class="cls-2" x1="327.99" y1="275.85" x2="327.99" y2="280.24"/><line class="cls-2" x1="334.4" y1="275.85" x2="334.4" y2="280.24"/><line class="cls-2" x1="302.33" y1="286.54" x2="302.33" y2="290.93"/><line class="cls-2" x1="308.74" y1="286.54" x2="308.74" y2="290.93"/><line class="cls-2" x1="315.16" y1="286.54" x2="315.16" y2="290.93"/><line class="cls-2" x1="321.57" y1="286.54" x2="321.57" y2="290.93"/><line class="cls-2" x1="327.99" y1="286.54" x2="327.99" y2="290.93"/><line class="cls-2" x1="334.4" y1="286.54" x2="334.4" y2="290.93"/><line class="cls-2" x1="302.33" y1="297.23" x2="302.33" y2="301.62"/><line class="cls-2" x1="308.74" y1="297.23" x2="308.74" y2="301.62"/><line class="cls-2" x1="315.16" y1="297.23" x2="315.16" y2="301.62"/><line class="cls-2" x1="321.57" y1="297.23" x2="321.57" y2="301.62"/><line class="cls-2" x1="327.99" y1="297.23" x2="327.99" y2="301.62"/><line class="cls-2" x1="334.4" y1="297.23" x2="334.4" y2="301.62"/><line class="cls-2" x1="302.33" y1="307.92" x2="302.33" y2="312.31"/><line class="cls-2" x1="308.74" y1="307.92" x2="308.74" y2="312.31"/><line class="cls-2" x1="315.16" y1="307.92" x2="315.16" y2="312.31"/><line class="cls-2" x1="321.57" y1="307.92" x2="321.57" y2="312.31"/><line class="cls-2" x1="327.99" y1="307.92" x2="327.99" y2="312.31"/><line class="cls-2" x1="334.4" y1="307.92" x2="334.4" y2="312.31"/><line class="cls-2" x1="302.33" y1="318.62" x2="302.33" y2="323"/><line class="cls-2" x1="308.74" y1="318.62" x2="308.74" y2="323"/><line class="cls-2" x1="315.16" y1="318.62" x2="315.16" y2="323"/><line class="cls-2" x1="321.57" y1="318.62" x2="321.57" y2="323"/><line class="cls-2" x1="327.99" y1="318.62" x2="327.99" y2="323"/><line class="cls-2" x1="334.4" y1="318.62" x2="334.4" y2="323"/><line class="cls-2" x1="302.33" y1="329.31" x2="302.33" y2="333.7"/><line class="cls-2" x1="308.74" y1="329.31" x2="308.74" y2="333.7"/><line class="cls-2" x1="315.16" y1="329.31" x2="315.16" y2="333.7"/><line class="cls-2" x1="321.57" y1="329.31" x2="321.57" y2="333.7"/><line class="cls-2" x1="327.99" y1="329.31" x2="327.99" y2="333.7"/><line class="cls-2" x1="334.4" y1="329.31" x2="334.4" y2="333.7"/><line class="cls-2" x1="302.33" y1="340" x2="302.33" y2="344.39"/><line class="cls-2" x1="308.74" y1="340" x2="308.74" y2="344.39"/><line class="cls-2" x1="315.16" y1="340" x2="315.16" y2="344.39"/><line class="cls-2" x1="321.57" y1="340" x2="321.57" y2="344.39"/><line class="cls-2" x1="327.99" y1="340" x2="327.99" y2="344.39"/><line class="cls-2" x1="334.4" y1="340" x2="334.4" y2="344.39"/><line class="cls-2" x1="302.33" y1="350.69" x2="302.33" y2="355.08"/><line class="cls-2" x1="308.74" y1="350.69" x2="308.74" y2="355.08"/><line class="cls-2" x1="315.16" y1="350.69" x2="315.16" y2="355.08"/><line class="cls-2" x1="321.57" y1="350.69" x2="321.57" y2="355.08"/><line class="cls-2" x1="327.99" y1="350.69" x2="327.99" y2="355.08"/><line class="cls-2" x1="334.4" y1="350.69" x2="334.4" y2="355.08"/><line class="cls-2" x1="302.33" y1="361.38" x2="302.33" y2="365.77"/><line class="cls-2" x1="308.74" y1="361.38" x2="308.74" y2="365.77"/><line class="cls-2" x1="315.16" y1="361.38" x2="315.16" y2="365.77"/><line class="cls-2" x1="321.57" y1="361.38" x2="321.57" y2="365.77"/><line class="cls-2" x1="327.99" y1="361.38" x2="327.99" y2="365.77"/><line class="cls-2" x1="334.4" y1="361.38" x2="334.4" y2="365.77"/><line class="cls-2" x1="355.12" y1="218.38" x2="355.12" y2="222.77"/><line class="cls-2" x1="361.53" y1="218.38" x2="361.53" y2="222.77"/><line class="cls-2" x1="367.95" y1="218.38" x2="367.95" y2="222.77"/><line class="cls-2" x1="374.36" y1="218.38" x2="374.36" y2="222.77"/><line class="cls-2" x1="380.78" y1="218.38" x2="380.78" y2="222.77"/><line class="cls-2" x1="387.2" y1="218.38" x2="387.2" y2="222.77"/><line class="cls-2" x1="355.12" y1="229.07" x2="355.12" y2="233.46"/><line class="cls-2" x1="361.53" y1="229.07" x2="361.53" y2="233.46"/><line class="cls-2" x1="367.95" y1="229.07" x2="367.95" y2="233.46"/><line class="cls-2" x1="374.36" y1="229.07" x2="374.36" y2="233.46"/><line class="cls-2" x1="380.78" y1="229.07" x2="380.78" y2="233.46"/><line class="cls-2" x1="387.2" y1="229.07" x2="387.2" y2="233.46"/><line class="cls-2" x1="355.12" y1="239.76" x2="355.12" y2="244.15"/><line class="cls-2" x1="361.53" y1="239.76" x2="361.53" y2="244.15"/><line class="cls-2" x1="367.95" y1="239.76" x2="367.95" y2="244.15"/><line class="cls-2" x1="374.36" y1="239.76" x2="374.36" y2="244.15"/><line class="cls-2" x1="380.78" y1="239.76" x2="380.78" y2="244.15"/><line class="cls-2" x1="387.2" y1="239.76" x2="387.2" y2="244.15"/><line class="cls-2" x1="355.12" y1="250.46" x2="355.12" y2="254.84"/><line class="cls-2" x1="361.53" y1="250.46" x2="361.53" y2="254.84"/><line class="cls-2" x1="367.95" y1="250.46" x2="367.95" y2="254.84"/><line class="cls-2" x1="374.36" y1="250.46" x2="374.36" y2="254.84"/><line class="cls-2" x1="380.78" y1="250.46" x2="380.78" y2="254.84"/><line class="cls-2" x1="387.2" y1="250.46" x2="387.2" y2="254.84"/><line class="cls-2" x1="355.12" y1="261.15" x2="355.12" y2="265.53"/><line class="cls-2" x1="361.53" y1="261.15" x2="361.53" y2="265.53"/><line class="cls-2" x1="367.95" y1="261.15" x2="367.95" y2="265.53"/><line class="cls-2" x1="374.36" y1="261.15" x2="374.36" y2="265.53"/><line class="cls-2" x1="380.78" y1="261.15" x2="380.78" y2="265.53"/><line class="cls-2" x1="387.2" y1="261.15" x2="387.2" y2="265.53"/><line class="cls-2" x1="355.12" y1="271.84" x2="355.12" y2="276.23"/><line class="cls-2" x1="361.53" y1="271.84" x2="361.53" y2="276.23"/><line class="cls-2" x1="367.95" y1="271.84" x2="367.95" y2="276.23"/><line class="cls-2" x1="374.36" y1="271.84" x2="374.36" y2="276.23"/><line class="cls-2" x1="380.78" y1="271.84" x2="380.78" y2="276.23"/><line class="cls-2" x1="387.2" y1="271.84" x2="387.2" y2="276.23"/><line class="cls-2" x1="355.12" y1="282.53" x2="355.12" y2="286.92"/><line class="cls-2" x1="361.53" y1="282.53" x2="361.53" y2="286.92"/><line class="cls-2" x1="367.95" y1="282.53" x2="367.95" y2="286.92"/><line class="cls-2" x1="374.36" y1="282.53" x2="374.36" y2="286.92"/><line class="cls-2" x1="380.78" y1="282.53" x2="380.78" y2="286.92"/><line class="cls-2" x1="387.2" y1="282.53" x2="387.2" y2="286.92"/><line class="cls-2" x1="355.12" y1="293.22" x2="355.12" y2="297.61"/><line class="cls-2" x1="361.53" y1="293.22" x2="361.53" y2="297.61"/><line class="cls-2" x1="367.95" y1="293.22" x2="367.95" y2="297.61"/><line class="cls-2" x1="374.36" y1="293.22" x2="374.36" y2="297.61"/><line class="cls-2" x1="380.78" y1="293.22" x2="380.78" y2="297.61"/><line class="cls-2" x1="387.2" y1="293.22" x2="387.2" y2="297.61"/><line class="cls-2" x1="355.12" y1="303.92" x2="355.12" y2="308.3"/><line class="cls-2" x1="361.53" y1="303.92" x2="361.53" y2="308.3"/><line class="cls-2" x1="367.95" y1="303.92" x2="367.95" y2="308.3"/><line class="cls-2" x1="374.36" y1="303.92" x2="374.36" y2="308.3"/><line class="cls-2" x1="380.78" y1="303.92" x2="380.78" y2="308.3"/><line class="cls-2" x1="387.2" y1="303.92" x2="387.2" y2="308.3"/><line class="cls-2" x1="355.12" y1="314.61" x2="355.12" y2="318.99"/><line class="cls-2" x1="361.53" y1="314.61" x2="361.53" y2="318.99"/><line class="cls-2" x1="367.95" y1="314.61" x2="367.95" y2="318.99"/><line class="cls-2" x1="374.36" y1="314.61" x2="374.36" y2="318.99"/><line class="cls-2" x1="380.78" y1="314.61" x2="380.78" y2="318.99"/><line class="cls-2" x1="387.2" y1="314.61" x2="387.2" y2="318.99"/><line class="cls-2" x1="355.12" y1="325.3" x2="355.12" y2="329.69"/><line class="cls-2" x1="361.53" y1="325.3" x2="361.53" y2="329.69"/><line class="cls-2" x1="367.95" y1="325.3" x2="367.95" y2="329.69"/><line class="cls-2" x1="374.36" y1="325.3" x2="374.36" y2="329.69"/><line class="cls-2" x1="380.78" y1="325.3" x2="380.78" y2="329.69"/><line class="cls-2" x1="387.2" y1="325.3" x2="387.2" y2="329.69"/><line class="cls-2" x1="355.12" y1="335.99" x2="355.12" y2="340.38"/><line class="cls-2" x1="361.53" y1="335.99" x2="361.53" y2="340.38"/><line class="cls-2" x1="367.95" y1="335.99" x2="367.95" y2="340.38"/><line class="cls-2" x1="374.36" y1="335.99" x2="374.36" y2="340.38"/><line class="cls-2" x1="380.78" y1="335.99" x2="380.78" y2="340.38"/><line class="cls-2" x1="387.2" y1="335.99" x2="387.2" y2="340.38"/><line class="cls-2" x1="355.12" y1="346.68" x2="355.12" y2="351.07"/><line class="cls-2" x1="361.53" y1="346.68" x2="361.53" y2="351.07"/><line class="cls-2" x1="367.95" y1="346.68" x2="367.95" y2="351.07"/><line class="cls-2" x1="374.36" y1="346.68" x2="374.36" y2="351.07"/><line class="cls-2" x1="380.78" y1="346.68" x2="380.78" y2="351.07"/><line class="cls-2" x1="387.2" y1="346.68" x2="387.2" y2="351.07"/><line class="cls-2" x1="355.12" y1="357.38" x2="355.12" y2="361.76"/><line class="cls-2" x1="361.53" y1="357.38" x2="361.53" y2="361.76"/><line class="cls-2" x1="367.95" y1="357.38" x2="367.95" y2="361.76"/><line class="cls-2" x1="374.36" y1="357.38" x2="374.36" y2="361.76"/><line class="cls-2" x1="380.78" y1="357.38" x2="380.78" y2="361.76"/><line class="cls-2" x1="387.2" y1="357.38" x2="387.2" y2="361.76"/><line class="cls-2" x1="355.12" y1="368.07" x2="355.12" y2="372.45"/><line class="cls-2" x1="361.53" y1="368.07" x2="361.53" y2="372.45"/><line class="cls-2" x1="367.95" y1="368.07" x2="367.95" y2="372.45"/><line class="cls-2" x1="374.36" y1="368.07" x2="374.36" y2="372.45"/><line class="cls-2" x1="380.78" y1="368.07" x2="380.78" y2="372.45"/><line class="cls-2" x1="387.2" y1="368.07" x2="387.2" y2="372.45"/><line class="cls-2" x1="355.12" y1="378.76" x2="355.12" y2="383.15"/><line class="cls-2" x1="361.53" y1="378.76" x2="361.53" y2="383.15"/><line class="cls-2" x1="367.95" y1="378.76" x2="367.95" y2="383.15"/><line class="cls-2" x1="374.36" y1="378.76" x2="374.36" y2="383.15"/><line class="cls-2" x1="380.78" y1="378.76" x2="380.78" y2="383.15"/><line class="cls-2" x1="387.2" y1="378.76" x2="387.2" y2="383.15"/><line class="cls-2" x1="665.97" y1="307.87" x2="665.97" y2="312.25"/><line class="cls-2" x1="665.97" y1="318.56" x2="665.97" y2="322.94"/><line class="cls-2" x1="665.97" y1="329.25" x2="665.97" y2="333.64"/><line class="cls-2" x1="665.97" y1="339.94" x2="665.97" y2="344.33"/><line class="cls-2" x1="665.97" y1="350.63" x2="665.97" y2="355.02"/><line class="cls-2" x1="665.97" y1="361.33" x2="665.97" y2="365.71"/><line class="cls-2" x1="551.92" y1="303.78" x2="551.92" y2="308.17"/><line class="cls-2" x1="551.92" y1="314.47" x2="551.92" y2="318.86"/><line class="cls-2" x1="551.92" y1="325.17" x2="551.92" y2="329.55"/><line class="cls-2" x1="551.92" y1="335.86" x2="551.92" y2="340.24"/><line class="cls-2" x1="551.92" y1="346.55" x2="551.92" y2="350.94"/><line class="cls-2" x1="551.92" y1="357.24" x2="551.92" y2="361.63"/><line class="cls-2" x1="539.22" y1="298.33" x2="539.22" y2="302.72"/><line class="cls-2" x1="539.22" y1="309.02" x2="539.22" y2="313.41"/><line class="cls-2" x1="539.22" y1="319.71" x2="539.22" y2="324.1"/><line class="cls-2" x1="539.22" y1="330.41" x2="539.22" y2="334.79"/><line class="cls-2" x1="539.22" y1="341.1" x2="539.22" y2="345.49"/><line class="cls-2" x1="539.22" y1="351.79" x2="539.22" y2="356.18"/><line class="cls-2" x1="539.22" y1="362.48" x2="539.22" y2="366.87"/><line class="cls-2" x1="526.86" y1="295.09" x2="526.86" y2="299.48"/><line class="cls-2" x1="526.86" y1="305.79" x2="526.86" y2="310.17"/><line class="cls-2" x1="526.86" y1="316.48" x2="526.86" y2="320.87"/><line class="cls-2" x1="526.86" y1="327.17" x2="526.86" y2="331.56"/><line class="cls-2" x1="526.86" y1="337.86" x2="526.86" y2="342.25"/><line class="cls-2" x1="526.86" y1="348.55" x2="526.86" y2="352.94"/><line class="cls-2" x1="526.86" y1="359.25" x2="526.86" y2="363.63"/><line class="cls-2" x1="520.18" y1="295.09" x2="520.18" y2="299.48"/><line class="cls-2" x1="520.18" y1="305.79" x2="520.18" y2="310.17"/><line class="cls-2" x1="520.18" y1="316.48" x2="520.18" y2="320.87"/><line class="cls-2" x1="520.18" y1="327.17" x2="520.18" y2="331.56"/><line class="cls-2" x1="520.18" y1="337.86" x2="520.18" y2="342.25"/><line class="cls-2" x1="520.18" y1="348.55" x2="520.18" y2="352.94"/><line class="cls-2" x1="520.18" y1="359.25" x2="520.18" y2="363.63"/><line class="cls-2" x1="215.45" y1="308.46" x2="215.45" y2="312.85"/><line class="cls-2" x1="215.45" y1="319.15" x2="215.45" y2="323.54"/><line class="cls-2" x1="215.45" y1="329.84" x2="215.45" y2="334.23"/><line class="cls-2" x1="215.45" y1="340.54" x2="215.45" y2="344.92"/><line class="cls-2" x1="215.45" y1="351.23" x2="215.45" y2="355.61"/><line class="cls-2" x1="215.45" y1="361.92" x2="215.45" y2="366.31"/><line class="cls-2" x1="215.45" y1="372.61" x2="215.45" y2="377"/><line class="cls-2" x1="208.77" y1="319.15" x2="208.77" y2="323.54"/><line class="cls-2" x1="208.77" y1="329.84" x2="208.77" y2="334.23"/><line class="cls-2" x1="208.77" y1="340.54" x2="208.77" y2="344.92"/><line class="cls-2" x1="208.77" y1="351.23" x2="208.77" y2="355.61"/><line class="cls-2" x1="208.77" y1="361.92" x2="208.77" y2="366.31"/><line class="cls-2" x1="208.77" y1="372.61" x2="208.77" y2="377"/><rect class="cls-1" x="190.73" y="284.4" width="4.96" height="9.01"/><line class="cls-1" x1="193.21" y1="284.4" x2="193.21" y2="293.45"/><line class="cls-1" x1="190.73" y1="288.91" x2="195.69" y2="288.91"/><rect class="cls-1" x="190.73" y="298.22" width="4.96" height="9.01"/><line class="cls-1" x1="193.21" y1="298.22" x2="193.21" y2="307.27"/><line class="cls-1" x1="190.73" y1="302.73" x2="195.69" y2="302.73"/><rect class="cls-1" x="190.73" y="312.04" width="4.96" height="9.01"/><line class="cls-1" x1="193.21" y1="312.04" x2="193.21" y2="321.09"/><line class="cls-1" x1="190.73" y1="316.55" x2="195.69" y2="316.55"/><rect class="cls-1" x="190.73" y="325.86" width="4.96" height="9.01"/><line class="cls-1" x1="193.21" y1="325.86" x2="193.21" y2="334.91"/><line class="cls-1" x1="190.73" y1="330.37" x2="195.69" y2="330.37"/><rect class="cls-1" x="190.73" y="339.68" width="4.96" height="9.01"/><line class="cls-1" x1="193.21" y1="339.68" x2="193.21" y2="348.73"/><line class="cls-1" x1="190.73" y1="344.19" x2="195.69" y2="344.19"/><rect class="cls-1" x="197.27" y="284.4" width="4.96" height="9.01"/><line class="cls-1" x1="199.75" y1="284.4" x2="199.75" y2="293.45"/><line class="cls-1" x1="197.27" y1="288.91" x2="202.23" y2="288.91"/><rect class="cls-1" x="197.27" y="298.22" width="4.96" height="9.01"/><line class="cls-1" x1="199.75" y1="298.22" x2="199.75" y2="307.27"/><line class="cls-1" x1="197.27" y1="302.73" x2="202.23" y2="302.73"/><rect class="cls-1" x="197.27" y="312.04" width="4.96" height="9.01"/><line class="cls-1" x1="199.75" y1="312.04" x2="199.75" y2="321.09"/><line class="cls-1" x1="197.27" y1="316.55" x2="202.23" y2="316.55"/><rect class="cls-1" x="197.27" y="325.86" width="4.96" height="9.01"/><line class="cls-1" x1="199.75" y1="325.86" x2="199.75" y2="334.91"/><line class="cls-1" x1="197.27" y1="330.37" x2="202.23" y2="330.37"/><rect class="cls-1" x="197.27" y="339.68" width="4.96" height="9.01"/><line class="cls-1" x1="199.75" y1="339.68" x2="199.75" y2="348.73"/><line class="cls-1" x1="197.27" y1="344.19" x2="202.23" y2="344.19"/><rect class="cls-1" x="203.81" y="284.4" width="4.96" height="9.01"/><line class="cls-1" x1="206.29" y1="284.4" x2="206.29" y2="293.45"/><line class="cls-1" x1="203.81" y1="288.91" x2="208.77" y2="288.91"/><rect class="cls-1" x="203.81" y="298.22" width="4.96" height="9.01"/><line class="cls-1" x1="206.29" y1="298.22" x2="206.29" y2="307.27"/><line class="cls-1" x1="203.81" y1="302.73" x2="208.77" y2="302.73"/><polyline class="cls-1" points="203.81 321.05 203.81 312.04 208.77 312.04 208.77 313.04"/><line class="cls-1" x1="206.29" y1="312.04" x2="206.29" y2="316.62"/><line class="cls-1" x1="203.81" y1="316.55" x2="206.29" y2="316.55"/><line class="cls-2" x1="186.72" y1="305.12" x2="186.72" y2="309.51"/><line class="cls-2" x1="186.72" y1="315.81" x2="186.72" y2="320.2"/><line class="cls-2" x1="186.72" y1="326.5" x2="186.72" y2="330.89"/><line class="cls-2" x1="186.72" y1="337.19" x2="186.72" y2="341.58"/><line class="cls-2" x1="509.48" y1="287.08" x2="509.48" y2="291.46"/><line class="cls-2" x1="509.48" y1="297.77" x2="509.48" y2="302.15"/><line class="cls-2" x1="509.48" y1="308.46" x2="509.48" y2="312.85"/><line class="cls-2" x1="509.48" y1="319.15" x2="509.48" y2="323.54"/><line class="cls-2" x1="509.48" y1="329.84" x2="509.48" y2="334.23"/><line class="cls-2" x1="509.48" y1="340.54" x2="509.48" y2="344.92"/><line class="cls-2" x1="501.8" y1="287.08" x2="501.8" y2="291.47"/><line class="cls-2" x1="501.8" y1="297.77" x2="501.8" y2="302.16"/><line class="cls-2" x1="501.8" y1="308.46" x2="501.8" y2="312.85"/><line class="cls-2" x1="501.8" y1="319.15" x2="501.8" y2="323.54"/><line class="cls-2" x1="501.8" y1="329.85" x2="501.8" y2="334.23"/><line class="cls-2" x1="501.8" y1="340.54" x2="501.8" y2="344.93"/><line class="cls-2" x1="494.12" y1="287.08" x2="494.12" y2="291.46"/><line class="cls-2" x1="494.12" y1="297.77" x2="494.12" y2="302.15"/><line class="cls-2" x1="494.12" y1="308.46" x2="494.12" y2="312.85"/><line class="cls-2" x1="494.12" y1="319.15" x2="494.12" y2="323.54"/><line class="cls-2" x1="494.12" y1="329.84" x2="494.12" y2="334.23"/><line class="cls-2" x1="494.12" y1="340.54" x2="494.12" y2="344.92"/><line class="cls-2" x1="509.48" y1="351.23" x2="509.48" y2="355.61"/><line class="cls-2" x1="501.8" y1="351.23" x2="501.8" y2="355.62"/><line class="cls-2" x1="494.12" y1="351.23" x2="494.12" y2="355.61"/><line class="cls-2" x1="509.48" y1="361.92" x2="509.48" y2="366.31"/><line class="cls-2" x1="501.8" y1="361.92" x2="501.8" y2="366.31"/><line class="cls-2" x1="494.12" y1="361.92" x2="494.12" y2="366.31"/><line class="cls-2" x1="501.8" y1="372.61" x2="501.8" y2="377"/><line class="cls-2" x1="494.12" y1="372.61" x2="494.12" y2="377"/><rect class="cls-1" x="690.62" y="272.47" width="6.61" height="12.02"/><polyline class="cls-1" points="693.92 274.39 695.66 274.39 695.66 278.48"/><rect class="cls-1" x="675.21" y="290.89" width="6.61" height="12.02"/><polyline class="cls-1" points="678.52 292.82 680.26 292.82 680.26 296.9"/><rect class="cls-1" x="706.02" y="290.89" width="6.61" height="12.02"/><polyline class="cls-1" points="709.33 292.82 711.07 292.82 711.07 296.9"/><rect class="cls-1" x="706.02" y="272.47" width="6.61" height="12.02"/><path class="cls-1" d="M706,272.47c2.08,5,4.29,9.49,6.61,10.22"/><rect class="cls-1" x="690.62" y="290.89" width="6.61" height="12.02"/><path class="cls-1" d="M690.62,290.89c2.08,5.05,4.28,9.5,6.61,10.22"/><rect class="cls-1" x="675.21" y="272.47" width="6.61" height="12.02"/><path class="cls-1" d="M675.21,272.47c2.08,5,4.29,9.49,6.61,10.22"/><rect class="cls-1" x="690.62" y="346.17" width="6.61" height="12.02"/><polyline class="cls-1" points="693.92 348.09 695.66 348.09 695.66 352.18"/><rect class="cls-1" x="706.02" y="346.17" width="6.61" height="12.02"/><path class="cls-1" d="M706,346.17c2.08,5.05,4.29,9.49,6.61,10.22"/><rect class="cls-1" x="675.21" y="346.17" width="6.61" height="12.02"/><path class="cls-1" d="M675.21,346.17c2.08,5.05,4.29,9.49,6.61,10.22"/><rect class="cls-1" x="690.62" y="309.32" width="6.61" height="12.02"/><polyline class="cls-1" points="693.92 311.24 695.66 311.24 695.66 315.33"/><rect class="cls-1" x="675.21" y="327.74" width="6.61" height="12.02"/><polyline class="cls-1" points="678.52 329.67 680.26 329.67 680.26 333.75"/><rect class="cls-1" x="706.02" y="327.74" width="6.61" height="12.02"/><polyline class="cls-1" points="709.33 329.67 711.07 329.67 711.07 333.75"/><rect class="cls-1" x="706.02" y="309.32" width="6.61" height="12.02"/><path class="cls-1" d="M706,309.32c2.08,5.05,4.29,9.49,6.61,10.22"/><rect class="cls-1" x="690.62" y="327.74" width="6.61" height="12.02"/><path class="cls-1" d="M690.62,327.74c2.08,5.05,4.28,9.5,6.61,10.22"/><rect class="cls-1" x="675.21" y="309.32" width="6.61" height="12.02"/><path class="cls-1" d="M675.21,309.32c2.08,5.05,4.29,9.49,6.61,10.22"/><polygon class="cls-1" points="688.93 367.93 683.95 367.93 683.95 376.78 688.93 377.09 688.93 367.93"/><polygon class="cls-1" points="703.89 367.93 698.91 367.93 698.91 377.7 703.89 378.02 703.89 367.93"/><polygon class="cls-1" points="691.93 361.07 680.96 361.07 680.96 376.62 691.93 377.27 691.93 361.07"/><polygon class="cls-1" points="706.89 361.07 695.91 361.07 695.91 377.52 706.89 378.2 706.89 361.07"/><circle class="cls-2" cx="678.52" cy="262.16" r="3.91"/><path class="cls-2" d="M690.45,263.91a3.7,3.7,0,0,1,0-3.5H682a3.78,3.78,0,0,1,0,3.5Z"/><circle class="cls-2" cx="693.92" cy="262.16" r="3.91"/><path class="cls-2" d="M705.85,263.91a3.78,3.78,0,0,1,0-3.5H697.4a3.78,3.78,0,0,1,0,3.5Z"/><circle class="cls-2" cx="709.33" cy="262.16" r="3.91"/><g class="cls-7"><line class="cls-2" x1="675.39" y1="255" x2="682.31" y2="246.06"/><line class="cls-2" x1="678.79" y1="255" x2="685.71" y2="246.06"/><line class="cls-2" x1="682.19" y1="255" x2="689.11" y2="246.06"/><line class="cls-2" x1="685.59" y1="255" x2="692.51" y2="246.06"/><line class="cls-2" x1="689" y1="255" x2="695.91" y2="246.06"/><line class="cls-2" x1="692.4" y1="255" x2="699.32" y2="246.06"/><line class="cls-2" x1="695.8" y1="255" x2="702.72" y2="246.06"/><line class="cls-2" x1="699.2" y1="255" x2="706.12" y2="246.06"/><line class="cls-2" x1="702.6" y1="255" x2="709.52" y2="246.06"/></g><polygon class="cls-1" points="675.39 255 682.31 246.06 702.48 246.06 702.48 255 675.39 255"/><ellipse class="cls-1" cx="603.71" cy="302.91" rx="3.19" ry="4.95"/><ellipse class="cls-1" cx="603.71" cy="321.34" rx="3.19" ry="4.95"/><ellipse class="cls-1" cx="603.71" cy="339.76" rx="3.19" ry="4.95"/><ellipse class="cls-1" cx="603.71" cy="358.19" rx="3.19" ry="4.95"/><rect class="cls-1" x="251.54" y="266.36" width="6.61" height="12.02"/><polyline class="cls-1" points="254.85 268.28 256.59 268.28 256.59 272.37"/><rect class="cls-1" x="251.54" y="340.06" width="6.61" height="12.02"/><polyline class="cls-1" points="254.85 341.98 256.59 341.98 256.59 346.07"/><rect class="cls-1" x="251.54" y="303.21" width="6.61" height="12.02"/><polyline class="cls-1" points="254.85 305.13 256.59 305.13 256.59 309.22"/><rect class="cls-1" x="251.54" y="321.63" width="6.61" height="12.02"/><line class="cls-1" x1="254.85" y1="321.63" x2="254.85" y2="333.7"/><line class="cls-1" x1="251.54" y1="327.64" x2="258.15" y2="327.64"/><rect class="cls-1" x="251.54" y="359.34" width="6.61" height="12.02"/><line class="cls-1" x1="254.85" y1="359.34" x2="254.85" y2="371.4"/><line class="cls-1" x1="251.54" y1="365.35" x2="258.15" y2="365.35"/><rect class="cls-1" x="251.54" y="284.78" width="6.61" height="12.02"/><line class="cls-1" x1="254.85" y1="284.78" x2="254.85" y2="296.85"/><line class="cls-1" x1="251.54" y1="290.79" x2="258.15" y2="290.79"/><rect class="cls-1" x="270.99" y="266.36" width="6.61" height="12.02"/><polyline class="cls-1" points="274.3 268.28 276.04 268.28 276.04 272.37"/><rect class="cls-1" x="270.99" y="340.06" width="6.61" height="12.02"/><polyline class="cls-1" points="274.3 341.98 276.04 341.98 276.04 346.07"/><rect class="cls-1" x="270.99" y="303.21" width="6.61" height="12.02"/><polyline class="cls-1" points="274.3 305.13 276.04 305.13 276.04 309.22"/><rect class="cls-1" x="270.99" y="321.63" width="6.61" height="12.02"/><line class="cls-1" x1="274.3" y1="321.63" x2="274.3" y2="333.7"/><line class="cls-1" x1="270.99" y1="327.64" x2="277.6" y2="327.64"/><rect class="cls-1" x="270.99" y="359.34" width="6.61" height="12.02"/><line class="cls-1" x1="274.3" y1="359.34" x2="274.3" y2="371.4"/><line class="cls-1" x1="270.99" y1="365.35" x2="277.6" y2="365.35"/><rect class="cls-1" x="270.99" y="284.78" width="6.61" height="12.02"/><line class="cls-1" x1="274.3" y1="284.78" x2="274.3" y2="296.85"/><line class="cls-1" x1="270.99" y1="290.79" x2="277.6" y2="290.79"/><circle class="cls-1" cx="264.57" cy="273.28" r="2.95"/><circle class="cls-1" cx="264.57" cy="291.7" r="2.95"/><circle class="cls-1" cx="264.57" cy="310.13" r="2.95"/><circle class="cls-1" cx="264.57" cy="328.55" r="2.95"/><circle class="cls-1" cx="264.57" cy="346.98" r="2.95"/><circle class="cls-1" cx="264.57" cy="365.4" r="2.95"/><circle class="cls-1" cx="423.95" cy="263.11" r="2.95"/><circle class="cls-1" cx="423.95" cy="281.54" r="2.95"/><circle class="cls-1" cx="423.95" cy="299.96" r="2.95"/><circle class="cls-1" cx="423.95" cy="318.39" r="2.95"/><circle class="cls-1" cx="423.95" cy="336.81" r="2.95"/><circle class="cls-1" cx="423.95" cy="355.24" r="2.95"/><rect class="cls-1" x="615.07" y="290.89" width="6.61" height="12.02"/><line class="cls-1" x1="618.37" y1="290.89" x2="618.37" y2="302.96"/><line class="cls-1" x1="615.07" y1="296.9" x2="621.68" y2="296.9"/><rect class="cls-1" x="628.58" y="290.89" width="6.61" height="12.02"/><line class="cls-1" x1="631.89" y1="290.89" x2="631.89" y2="302.96"/><line class="cls-1" x1="628.58" y1="296.9" x2="635.19" y2="296.9"/><rect class="cls-1" x="615.07" y="309.32" width="6.61" height="12.02"/><line class="cls-1" x1="618.37" y1="309.32" x2="618.37" y2="321.38"/><line class="cls-1" x1="615.07" y1="315.33" x2="621.68" y2="315.33"/><rect class="cls-1" x="628.58" y="309.32" width="6.61" height="12.02"/><line class="cls-1" x1="631.89" y1="309.32" x2="631.89" y2="321.38"/><line class="cls-1" x1="628.58" y1="315.33" x2="635.19" y2="315.33"/><rect class="cls-1" x="615.07" y="327.74" width="6.61" height="12.02"/><line class="cls-1" x1="618.37" y1="327.74" x2="618.37" y2="339.81"/><line class="cls-1" x1="615.07" y1="333.75" x2="621.68" y2="333.75"/><rect class="cls-1" x="628.58" y="327.74" width="6.61" height="12.02"/><line class="cls-1" x1="631.89" y1="327.74" x2="631.89" y2="339.81"/><line class="cls-1" x1="628.58" y1="333.75" x2="635.19" y2="333.75"/><rect class="cls-1" x="615.07" y="346.17" width="6.61" height="12.02"/><line class="cls-1" x1="618.37" y1="346.17" x2="618.37" y2="358.23"/><line class="cls-1" x1="615.07" y1="352.18" x2="621.68" y2="352.18"/><rect class="cls-1" x="628.58" y="346.17" width="6.61" height="12.02"/><line class="cls-1" x1="631.89" y1="346.17" x2="631.89" y2="358.23"/><line class="cls-1" x1="628.58" y1="352.18" x2="635.19" y2="352.18"/><polygon class="cls-1" points="636.59 361.88 620.73 361.88 620.73 374.12 636.59 374.75 636.59 361.88"/><polygon class="cls-1" points="639.26 360.06 618.05 360.06 618.05 374.04 639.26 374.85 639.26 360.06"/><rect class="cls-1" x="627.41" y="366.32" width="2.49" height="8.15"/><path class="cls-1" d="M631.4,365.57a2.75,2.75,0,1,0-5.49,0v8.77l5.49.21Z"/><circle class="cls-1" cx="640.45" cy="315.35" r="2.95"/><circle class="cls-1" cx="640.45" cy="333.78" r="2.95"/><circle class="cls-1" cx="640.45" cy="352.2" r="2.95"/><rect class="cls-1" x="652.25" y="367.27" width="2.49" height="8.15"/><path class="cls-1" d="M656.24,366.52a2.75,2.75,0,1,0-5.49,0v8.77l5.49.21Z"/><rect class="cls-1" x="646.25" y="352.34" width="14.48" height="5.85"/><line class="cls-1" x1="646.25" y1="358.19" x2="646.25" y2="352.34"/><line class="cls-1" x1="648.32" y1="358.19" x2="648.32" y2="352.34"/><line class="cls-1" x1="650.39" y1="358.19" x2="650.39" y2="352.34"/><line class="cls-1" x1="652.46" y1="358.19" x2="652.46" y2="352.34"/><line class="cls-1" x1="654.53" y1="358.19" x2="654.53" y2="352.34"/><line class="cls-1" x1="656.6" y1="358.19" x2="656.6" y2="352.34"/><line class="cls-1" x1="658.66" y1="358.19" x2="658.66" y2="352.34"/><line class="cls-1" x1="660.73" y1="358.19" x2="660.73" y2="352.34"/><rect class="cls-1" x="135.7" y="272.4" width="6.61" height="12.02"/><polyline class="cls-1" points="139.01 274.32 140.75 274.32 140.75 278.41"/><rect class="cls-1" x="120.3" y="290.82" width="6.61" height="12.02"/><polyline class="cls-1" points="123.6 292.75 125.34 292.75 125.34 296.83"/><rect class="cls-1" x="151.11" y="290.82" width="6.61" height="12.02"/><polyline class="cls-1" points="154.41 292.75 156.16 292.75 156.16 296.83"/><rect class="cls-1" x="151.11" y="272.4" width="6.61" height="12.02"/><path class="cls-1" d="M151.11,272.4c2.08,5.05,4.29,9.49,6.61,10.22"/><rect class="cls-1" x="135.7" y="290.82" width="6.61" height="12.02"/><path class="cls-1" d="M135.7,290.82c2.08,5.05,4.29,9.5,6.61,10.22"/><rect class="cls-1" x="120.3" y="272.4" width="6.61" height="12.02"/><path class="cls-1" d="M120.3,272.4c2.08,5.05,4.28,9.49,6.61,10.22"/><polyline class="cls-1" points="135.7 356.16 135.7 346.1 142.31 346.1 142.31 358.12 138.91 358.12"/><polyline class="cls-1" points="139.01 348.02 140.75 348.02 140.75 352.11"/><polyline class="cls-1" points="152.44 358.12 151.11 358.12 151.11 346.1 157.72 346.1 157.72 351.45"/><path class="cls-1" d="M151.11,346.1a44.89,44.89,0,0,0,3.71,7.51"/><rect class="cls-1" x="135.7" y="309.25" width="6.61" height="12.02"/><polyline class="cls-1" points="139.01 311.17 140.75 311.17 140.75 315.26"/><rect class="cls-1" x="120.3" y="327.67" width="6.61" height="12.02"/><polyline class="cls-1" points="123.6 329.6 125.34 329.6 125.34 333.68"/><rect class="cls-1" x="151.11" y="327.67" width="6.61" height="12.02"/><polyline class="cls-1" points="154.41 329.6 156.16 329.6 156.16 333.68"/><rect class="cls-1" x="151.11" y="309.25" width="6.61" height="12.02"/><path class="cls-1" d="M151.11,309.25c2.08,5.05,4.29,9.49,6.61,10.21"/><rect class="cls-1" x="135.7" y="327.67" width="6.61" height="12.02"/><path class="cls-1" d="M135.7,327.67c2.08,5.05,4.29,9.5,6.61,10.22"/><rect class="cls-1" x="120.3" y="309.25" width="6.61" height="12.02"/><path class="cls-1" d="M120.3,309.25c2.08,5.05,4.28,9.49,6.61,10.21"/><path class="cls-1" d="M120.3,272.4a3.31,3.31,0,1,1,6.61,0"/><path class="cls-1" d="M135.7,272.4a3.31,3.31,0,1,1,6.61,0"/><path class="cls-1" d="M151.11,272.4a3.31,3.31,0,1,1,6.61,0"/><path class="cls-1" d="M120.3,290.82a3.31,3.31,0,0,1,6.61,0"/><path class="cls-1" d="M135.7,290.82a3.31,3.31,0,0,1,6.61,0"/><path class="cls-1" d="M151.11,290.82a3.31,3.31,0,0,1,6.61,0"/><path class="cls-1" d="M120.3,309.25a3.31,3.31,0,1,1,6.61,0"/><path class="cls-1" d="M135.7,309.25a3.31,3.31,0,1,1,6.61,0"/><path class="cls-1" d="M151.11,309.25a3.31,3.31,0,1,1,6.61,0"/><path class="cls-1" d="M151.11,327.67a3.31,3.31,0,0,1,6.61,0"/><path class="cls-1" d="M135.7,327.67a3.31,3.31,0,0,1,6.61,0"/><path class="cls-1" d="M120.3,327.67a3.31,3.31,0,0,1,6.61,0"/><path class="cls-1" d="M135.7,346.1a3.31,3.31,0,1,1,6.61,0"/><path class="cls-1" d="M151.11,346.1a3.31,3.31,0,1,1,6.61,0"/><g class="cls-8"><line class="cls-2" x1="178.7" y1="282.62" x2="164.67" y2="273.71"/><line class="cls-2" x1="178.7" y1="286.43" x2="164.67" y2="277.52"/><line class="cls-2" x1="178.7" y1="290.23" x2="164.67" y2="281.32"/><line class="cls-2" x1="178.7" y1="294.04" x2="164.67" y2="285.13"/><line class="cls-2" x1="178.7" y1="297.85" x2="164.67" y2="288.94"/><line class="cls-2" x1="178.7" y1="301.66" x2="164.67" y2="292.75"/><line class="cls-2" x1="178.7" y1="305.46" x2="164.67" y2="296.55"/><line class="cls-2" x1="178.7" y1="309.27" x2="164.67" y2="300.36"/><line class="cls-2" x1="178.7" y1="313.08" x2="164.67" y2="304.17"/><line class="cls-2" x1="178.7" y1="316.89" x2="164.67" y2="307.98"/><line class="cls-2" x1="178.7" y1="320.69" x2="164.67" y2="311.78"/><line class="cls-2" x1="178.7" y1="324.5" x2="164.67" y2="315.59"/><line class="cls-2" x1="178.7" y1="328.31" x2="164.67" y2="319.4"/><line class="cls-2" x1="178.7" y1="332.11" x2="164.67" y2="323.2"/><line class="cls-2" x1="178.7" y1="335.92" x2="164.67" y2="327.01"/><line class="cls-2" x1="178.7" y1="339.73" x2="164.67" y2="330.82"/><line class="cls-2" x1="178.7" y1="343.54" x2="164.67" y2="334.63"/><line class="cls-2" x1="178.7" y1="347.34" x2="164.67" y2="338.43"/><line class="cls-2" x1="178.7" y1="351.15" x2="164.67" y2="342.24"/><line class="cls-2" x1="178.7" y1="354.96" x2="164.67" y2="346.05"/><line class="cls-2" x1="178.7" y1="358.76" x2="164.67" y2="349.86"/><line class="cls-2" x1="178.7" y1="362.57" x2="164.67" y2="353.66"/></g><polygon class="cls-2" points="168.18 352.87 168.18 283.56 175.19 288.01 175.19 353.95 168.18 352.87"/><polygon class="cls-2" points="113.21 252.33 164.67 252.33 157.32 235.62 133.93 235.62 113.21 252.33"/><g class="cls-9"><rect class="cls-1" x="161.24" y="261.22" width="4.84" height="4.84"/><rect class="cls-1" x="155.06" y="261.22" width="4.84" height="4.84"/><rect class="cls-1" x="148.88" y="261.22" width="4.84" height="4.84"/><rect class="cls-1" x="142.7" y="261.22" width="4.84" height="4.84"/><rect class="cls-1" x="136.52" y="261.22" width="4.84" height="4.84"/><rect class="cls-1" x="130.34" y="261.22" width="4.84" height="4.84"/><rect class="cls-1" x="124.16" y="261.22" width="4.84" height="4.84"/><rect class="cls-1" x="117.97" y="261.22" width="4.84" height="4.84"/><rect class="cls-1" x="111.79" y="261.22" width="4.84" height="4.84"/></g><rect class="cls-1" x="113.21" y="255" width="51.46" height="11.06"/><rect class="cls-1" x="88.84" y="369.25" width="12.16" height="4.33"/><rect class="cls-1" x="53.93" y="374.83" width="12.16" height="4.33"/><rect class="cls-1" x="47.29" y="368.02" width="12.16" height="4.33"/><rect class="cls-1" x="66.08" y="368.02" width="12.16" height="4.33"/><rect class="cls-1" x="31.78" y="358.71" width="8.49" height="5.27"/><rect class="cls-1" x="30.2" y="368.07" width="11.66" height="4.23"/><rect class="cls-1" x="30.95" y="377.35" width="10.16" height="4.53"/><rect class="cls-1" x="1.33" y="369.25" width="12.05" height="3.56"/><rect class="cls-1" x="1.33" y="376.41" width="12.05" height="4.47"/><g class="cls-10"><line class="cls-1" x1="539.13" y1="196.78" x2="616" y2="196.78"/><line class="cls-1" x1="539.21" y1="203.83" x2="616.02" y2="203.85"/><line class="cls-1" x1="539.29" y1="210.89" x2="616.03" y2="210.93"/><line class="cls-1" x1="539.37" y1="217.95" x2="616.05" y2="218"/><line class="cls-1" x1="539.45" y1="225.01" x2="616.07" y2="225.07"/><line class="cls-1" x1="539.52" y1="232.06" x2="616.09" y2="232.15"/><line class="cls-1" x1="539.6" y1="239.12" x2="616.1" y2="239.22"/><line class="cls-1" x1="539.68" y1="246.18" x2="616.12" y2="246.3"/><line class="cls-1" x1="539.76" y1="253.23" x2="616.14" y2="253.37"/><line class="cls-1" x1="539.83" y1="260.29" x2="616.16" y2="260.44"/><line class="cls-1" x1="539.91" y1="267.35" x2="616.18" y2="267.52"/><line class="cls-1" x1="539.99" y1="274.41" x2="616.19" y2="274.59"/><line class="cls-1" x1="540.07" y1="281.46" x2="616.21" y2="281.67"/><line class="cls-1" x1="540.14" y1="288.52" x2="616.23" y2="288.74"/><line class="cls-1" x1="540.22" y1="295.58" x2="616.25" y2="295.81"/><line class="cls-1" x1="540.3" y1="302.63" x2="616.27" y2="302.89"/><line class="cls-1" x1="540.38" y1="309.69" x2="616.28" y2="309.96"/><line class="cls-1" x1="540.45" y1="316.75" x2="616.3" y2="317.04"/><line class="cls-1" x1="540.53" y1="323.81" x2="616.32" y2="324.11"/><line class="cls-1" x1="540.61" y1="330.86" x2="616.34" y2="331.19"/><line class="cls-1" x1="540.69" y1="337.92" x2="616.36" y2="338.26"/><line class="cls-1" x1="540.76" y1="344.98" x2="616.37" y2="345.33"/><line class="cls-1" x1="540.84" y1="352.03" x2="616.39" y2="352.41"/><line class="cls-1" x1="540.92" y1="359.09" x2="616.41" y2="359.48"/><line class="cls-1" x1="541" y1="366.15" x2="616.43" y2="366.56"/><line class="cls-1" x1="541.08" y1="373.2" x2="616.44" y2="373.63"/><line class="cls-1" x1="541.15" y1="380.26" x2="616.46" y2="380.7"/><line class="cls-1" x1="541.23" y1="387.32" x2="616.48" y2="387.78"/><line class="cls-1" x1="541.31" y1="394.38" x2="616.5" y2="394.85"/><line class="cls-1" x1="541.39" y1="401.43" x2="616.52" y2="401.93"/><line class="cls-1" x1="541.46" y1="408.49" x2="616.53" y2="409"/><line class="cls-1" x1="541.54" y1="415.55" x2="616.55" y2="416.07"/></g><polyline class="cls-1" points="560.94 372.63 560.94 221.14 568.96 211.56 568.96 192.18 596.36 192.18 596.36 373.34"/><polygon class="cls-11" points="866.33 255 816.88 255 828.24 245.84 828.24 209.11 839.6 199.53 866.33 199.53 866.33 255"/><g class="cls-12"><line class="cls-2" x1="810.4" y1="224.11" x2="876.99" y2="167.97"/><line class="cls-2" x1="810.4" y1="229.39" x2="876.99" y2="173.25"/><line class="cls-2" x1="810.4" y1="234.67" x2="876.99" y2="178.53"/><line class="cls-2" x1="810.4" y1="239.95" x2="876.99" y2="183.81"/><line class="cls-2" x1="810.4" y1="245.23" x2="876.99" y2="189.09"/><line class="cls-2" x1="810.4" y1="250.51" x2="876.99" y2="194.37"/><line class="cls-2" x1="810.4" y1="255.8" x2="876.99" y2="199.65"/><line class="cls-2" x1="810.4" y1="261.08" x2="876.99" y2="204.94"/><line class="cls-2" x1="810.4" y1="266.36" x2="876.99" y2="210.22"/><line class="cls-2" x1="810.4" y1="271.64" x2="876.99" y2="215.5"/><line class="cls-2" x1="810.4" y1="276.92" x2="876.99" y2="220.78"/><line class="cls-2" x1="810.4" y1="282.2" x2="876.99" y2="226.06"/><line class="cls-2" x1="810.4" y1="287.48" x2="876.99" y2="231.34"/><line class="cls-2" x1="810.4" y1="292.76" x2="876.99" y2="236.62"/><line class="cls-2" x1="810.4" y1="298.04" x2="876.99" y2="241.9"/><line class="cls-2" x1="810.4" y1="303.32" x2="876.99" y2="247.18"/><line class="cls-2" x1="810.4" y1="308.6" x2="876.99" y2="252.46"/></g><polygon class="cls-1" points="866.33 255 816.88 255 828.24 245.84 828.24 209.11 839.6 199.53 866.33 199.53 866.33 255"/></g><g id="Shed"><polygon class="cls-13" points="1160.15 426.93 1058.88 410.81 1058.88 392.41 1160.15 406.88 1160.15 426.93"/><polygon class="cls-3" points="1094.32 410.01 1063.94 405.18 1063.94 399.66 1094.32 404 1094.32 410.01"/><polygon class="cls-3" points="1147.22 418.25 1116.84 413.42 1116.84 407.9 1147.22 412.24 1147.22 418.25"/><polyline class="cls-13" points="1081.49 384.48 1176.57 394.86 1160.15 406.88 1058.88 392.41 1071.25 383.36 1081.49 384.48"/><polyline class="cls-13" points="1176.57 394.86 1199.14 405.41 1199.14 434.53"/><polyline class="cls-3" points="1164.54 427.74 1164.54 409.67 1176.57 409.67 1176.57 430.07"/><polyline class="cls-3" points="1182.78 431.32 1182.78 409.67 1197.21 409.67 1197.21 434.53"/></g><path class="cls-3" d="M1081.49,382.88c16-16.62,17.29-32.94,47.21-39.4s98.38-30.33,153.57-27.71"/><line class="cls-4" x1="920.5" y1="390.65" x2="911.1" y2="390.01"/><line class="cls-4" x1="911.1" y1="390.01" x2="911.1" y2="390.12"/><line class="cls-4" x1="388.6" y1="390.65" x2="395.21" y2="390.33"/><path class="cls-4" d="M557.6,372.61l3.34,0"/><path class="cls-4" d="M646.25,375.14c-12.26-.52-24.06-1-35.19-1.34"/><path class="cls-4" d="M660.73,375.76q-7.34-.33-14.48-.62"/><path class="cls-4" d="M557.6,372.61q-6.09,0-11.36,0"/><path class="cls-4" d="M660.73,375.76l10.47.47"/><path class="cls-5" d="M1282.34,463.67c-31.95-18.25-135.93-40.42-154.19-41.72s-144.08-25.43-164.94-28c-3.55-.44-19.23-1.64-42.71-3.26"/><path class="cls-5" d="M532.21,373c-6.58.33-17.9-1.19-21,1.21.48,3.14,11.61,6.83,14.52,8.21s20,7,18,15C540,413.26,439,418,381.67,421.3S127,463.67.47,463.67"/><path class="cls-4" d="M532.21,373c3.94-.19,8.65-.31,14-.36"/><path class="cls-4" d="M884.37,388.24,911.1,390"/><path class="cls-4" d="M816.88,384c15.11.9,29.7,1.8,43.44,2.67"/><path class="cls-4" d="M884.37,388.24l-10.69-.69"/><path class="cls-4" d="M873.68,387.55l-13.36-.84"/><path class="cls-4" d="M758.74,380.69c-11.78-.65-23.63-1.28-35.42-1.9"/><path class="cls-4" d="M716.64,378.45c-15.4-.79-30.65-1.54-45.44-2.22"/><path class="cls-4" d="M596.36,373.34c-13.11-.38-25-.62-35.42-.71"/><path class="cls-4" d="M596.36,373.34c4.75.14,9.66.29,14.7.46"/><path class="cls-4" d="M716.64,378.45l6.68.34"/><path class="cls-4" d="M488.77,382.77c-4.86,1-10.61,2-17.38,2.8"/><path class="cls-4" d="M438.65,388.08l-7.35.41"/><path class="cls-4" d="M431.3,388.49c-4.79.27-9.7.53-14.7.78"/><path class="cls-4" d="M438.65,388.08c5.66-.33,11.14-.67,16.37-1,6.05-.4,11.47-.91,16.37-1.49"/><path class="cls-4" d="M511.34,374.11c-3.49,2.8-10.19,6-22.57,8.66"/><path class="cls-4" d="M388.6,390.65c-66.45,3.21-123.3,12.75-171.7,22.23C158.11,424.4,27.68,463.67.47,463.67"/><path class="cls-14" d="M352.57,392.41a8.5,8.5,0,0,0-1.44-2.41,40.72,40.72,0,0,0-2.69-3.61,43.7,43.7,0,0,0-8.69-7.91,42.9,42.9,0,0,0-22.59-7.74c-6.84-.26-13.8,2.68-20.18,4.8-.88.29-1.75.57-2.61.82a72.4,72.4,0,0,1-12.76,2.8,36.33,36.33,0,0,1-10.47-.29c-8-1.42-15.54-5.48-23.61-6.68a28,28,0,0,0-4.95-.35,19.06,19.06,0,0,0-5.74.92c-6.36,2.11-9,7.37-15.37,11.08-.39.23-.78.45-1.21.67-2.46,1.26-5.62,2.41-8.38,1.29-3-1.2-2.59-3.94-4.33-5.17a23.09,23.09,0,0,0-4.79-2.47c-3.58-1.46-6.2-2.47-6.43-9.35-.25-7.21,6.43-14.45-2.83-19-3.23-1.59-6.67-.23-10.12,1.35-1.56.71-3.13,1.46-4.68,2a11.9,11.9,0,0,1-4.1.81c-9.7-.14-17.76-9-22.38,4.79-1.42,4.24-1.6,18.52-9.91,15.59-6.33-2.23,1.95-14.1-5.2-17.63-8.74-4.33-12.63,9.28-15.23,13.93a21.93,21.93,0,0,1-8.67,8.8,25.34,25.34,0,0,1-7.32,2.56l-.65.14c-8.16,1.43-16.53-.44-24.77-1.07-1.31-.1-2.61-.17-3.91-.19h-.4a78.4,78.4,0,0,0-8.39.39,80,80,0,0,0-16.64,3.45c-2.06.67-4.08,1.41-6.08,2.24-5.17,2.25-10.38,4.45-15.31,6.54-3.87,1.64-25.4,11.07-29.55,12.77"/><g id="Balloon"><circle class="cls-5" cx="223.27" cy="158.42" r="24.26"/><ellipse class="cls-5" cx="223.27" cy="158.42" rx="16.52" ry="24.26"/><ellipse class="cls-5" cx="223.27" cy="158.42" rx="9" ry="24.26"/><rect class="cls-5" x="220.79" y="207.21" width="4.96" height="4.96"/><line class="cls-5" x1="245.94" y1="167.08" x2="225.75" y2="207.21"/><line class="cls-5" x1="202.03" y1="170.15" x2="220.79" y2="207.21"/><line class="cls-5" x1="223.27" y1="134.17" x2="223.27" y2="182.68"/></g><path class="cls-3" d="M1118.57,164.44h0a8.25,8.25,0,0,1-8.23,8.22h-78.83a8.25,8.25,0,0,1-8.23-8.22h0a23.57,23.57,0,0,1,33.21-21.53h0a34.77,34.77,0,0,1,62.08,21.53Z"/><g id="Bridge-2" data-name="Bridge"><line class="cls-15" x1="0.38" y1="342.14" x2="1282.5" y2="333.58"/><line class="cls-15" x1="0.38" y1="339.56" x2="265.3" y2="337.74"/><line class="cls-15" x1="1236.18" y1="331.39" x2="1282.5" y2="331"/><polyline class="cls-16" points="426.22 388.77 426.22 349.09 467.41 349.09 467.41 386.01"/><polygon class="cls-15" points="458.68 349.09 434.95 349.09 434.95 339.29 458.68 339.16 458.68 349.09"/><polyline class="cls-15" points="1029.62 405.36 1029.62 346.55 1081.49 346.55 1081.49 384.48"/><rect class="cls-15" x="1041.92" y="335.28" width="27.26" height="11.27"/><polyline class="cls-17" points="105.89 381.27 105.89 346.68 130.98 346.68 130.98 356.64"/><rect class="cls-17" x="110.11" y="341.33" width="16.66" height="5.35"/><path class="cls-18" d="M750.68,334.57,265.3,337.74c13.36-4.62,29-15.78,43.65-34.3,26.6-9.32,79.13-27.24,140.3-61.47,77.14,40.92,187.76,56,301.42,56.42h0c113.67-.47,224.42-21.85,301.56-62.77,61.17,34.23,113.7,52.16,140.3,61.48,14.61,18.51,30.29,29.68,43.65,34.29l-485.51,3.18Z"/><line class="cls-15" x1="1052.23" y1="235.62" x2="1052.23" y2="332.21"/><line class="cls-15" x1="449.25" y1="241.97" x2="449.25" y2="338.55"/><path class="cls-18" d="M750.68,334.57,265.3,337.74c13.36-4.62,29-15.78,43.65-34.3,26.6-9.32,79.13-27.24,140.3-61.47,77.14,40.92,187.76,56,301.42,56.42h0c113.67-.47,224.42-21.85,301.56-62.77,61.17,34.23,113.7,52.16,140.3,61.48,14.61,18.51,30.29,29.68,43.65,34.29l-485.51,3.18Z"/></g></g></svg>